  0
SECTION
  2
HEADER
  9
$ACADVER
  1
AC1009
  9
$FILLMODE
 70
1
  9
$EXTMIN
 10
-0.9821
 20
0.0000
 30
0.0000
  9
$EXTMAX
 10
12.3700
 20
12.6900
 30
0.0000
  0
ENDSEC
  0
SECTION
  2
TABLES
  0
TABLE
  2
LTYPE
 70
1
  0
LTYPE
  2
CONTINUOUS
 70
64
  3
Solid line
 72
65
 73
0
 40
0
  0
ENDTAB
  0
TABLE
  2
LAYER
 70
255
  0
LAYER
  2
1
 70
64
 62
22
  6
CONTINUOUS
  0
LAYER
  2
16
 70
64
 62
175
  6
CONTINUOUS
  0
LAYER
  2
17
 70
64
 62
82
  6
CONTINUOUS
  0
LAYER
  2
18
 70
64
 62
82
  6
CONTINUOUS
  0
LAYER
  2
19
 70
64
 62
53
  6
CONTINUOUS
  0
LAYER
  2
20
 70
64
 62
7
  6
CONTINUOUS
  0
LAYER
  2
21
 70
64
 62
253
  6
CONTINUOUS
  0
LAYER
  2
22
 70
64
 62
253
  6
CONTINUOUS
  0
LAYER
  2
23
 70
64
 62
7
  6
CONTINUOUS
  0
LAYER
  2
24
 70
64
 62
7
  6
CONTINUOUS
  0
LAYER
  2
25
 70
64
 62
253
  6
CONTINUOUS
  0
LAYER
  2
26
 70
64
 62
253
  6
CONTINUOUS
  0
LAYER
  2
27
 70
64
 62
253
  6
CONTINUOUS
  0
LAYER
  2
28
 70
64
 62
253
  6
CONTINUOUS
  0
LAYER
  2
39
 70
64
 62
22
  6
CONTINUOUS
  0
LAYER
  2
40
 70
64
 62
175
  6
CONTINUOUS
  0
LAYER
  2
41
 70
64
 62
22
  6
CONTINUOUS
  0
LAYER
  2
42
 70
64
 62
175
  6
CONTINUOUS
  0
LAYER
  2
43
 70
64
 62
82
  6
CONTINUOUS
  0
LAYER
  2
48
 70
64
 62
253
  6
CONTINUOUS
  0
LAYER
  2
49
 70
64
 62
253
  6
CONTINUOUS
  0
LAYER
  2
51
 70
64
 62
253
  6
CONTINUOUS
  0
LAYER
  2
52
 70
64
 62
253
  6
CONTINUOUS
  0
ENDTAB
  0
ENDSEC
  0
SECTION
  2
BLOCKS
  0
BLOCK
  8
0
  2
RECT
 70
64
 10
0.0000
 20
0.0000
 30
0.0000
  3
RECT
  0
SOLID
  8
0
 10
-0.5000
 20
-0.5000
 30
0.0000
 11
0.5000
 21
-0.5000
 31
0.0000
 12
-0.5000
 22
0.5000
 32
0.0000
 13
0.5000
 23
0.5000
 33
0.0000
  0
ENDBLK
  8
0
  0
BLOCK
  8
0
  2
PIE
 70
64
 10
0.0000
 20
0.0000
 30
0.0000
  3
PIE
  0
POLYLINE
  8
0
 66
1
 10
0.0000
 20
0.0000
 30
0.0000
 40
0.5000
 41
0.5000
 70
0
  0
VERTEX
  8
0
 10
0.0000
 20
-0.2500
 30
0.0000
 42
1.0000
  0
VERTEX
  8
0
 10
0.0000
 20
0.2500
 30
0.0000
 42
1.0000
  0
VERTEX
  8
0
 10
0.0000
 20
-0.2500
 30
0.0000
  0
SEQEND
  8
0
  0
ENDBLK
  8
0
  0
BLOCK
  8
0
  2
OCTAGONP
 70
64
 10
0.0000
 20
0.0000
 30
0.0000
  3
OCTAGONP
  0
POLYLINE
  8
0
 66
1
 10
0.0000
 20
0.0000
 30
0.0000
 40
0.5000
 41
0.5000
 70
0
  0
VERTEX
  8
0
 10
-0.2500
 20
-0.1036
 30
0.0000
  0
VERTEX
  8
0
 10
-0.2500
 20
0.1036
 30
0.0000
  0
VERTEX
  8
0
 10
-0.1036
 20
0.2500
 30
0.0000
  0
VERTEX
  8
0
 10
0.1036
 20
0.2500
 30
0.0000
  0
VERTEX
  8
0
 10
0.2500
 20
0.1036
 30
0.0000
  0
VERTEX
  8
0
 10
0.2500
 20
-0.1036
 30
0.0000
  0
VERTEX
  8
0
 10
0.1036
 20
-0.2500
 30
0.0000
  0
VERTEX
  8
0
 10
-0.1036
 20
-0.2500
 30
0.0000
  0
VERTEX
  8
0
 10
-0.2500
 20
-0.1036
 30
0.0000
  0
VERTEX
  8
0
 10
-0.2500
 20
0.1036
 30
0.0000
  0
SEQEND
  8
0
  0
ENDBLK
  8
0
  0
BLOCK
  8
0
  2
SQUAREP
 70
64
 10
0.0000
 20
0.0000
 30
0.0000
  3
SQUAREP
  0
SOLID
  8
0
 10
-0.5000
 20
-0.5000
 30
0.0000
 11
0.5000
 21
-0.5000
 31
0.0000
 12
-0.5000
 22
0.5000
 32
0.0000
 13
0.5000
 23
0.5000
 33
0.0000
  0
ENDBLK
  8
0
  0
BLOCK
  8
0
  2
ROUNDP
 70
64
 10
0.0000
 20
0.0000
 30
0.0000
  3
ROUNDP
  0
POLYLINE
  8
0
 66
1
 10
0.0000
 20
0.0000
 30
0.0000
 40
0.5000
 41
0.5000
 70
0
  0
VERTEX
  8
0
 10
0.0000
 20
-0.2500
 30
0.0000
 42
1.0000
  0
VERTEX
  8
0
 10
0.0000
 20
0.2500
 30
0.0000
 42
1.0000
  0
VERTEX
  8
0
 10
0.0000
 20
-0.2500
 30
0.0000
  0
SEQEND
  8
0
  0
ENDBLK
  8
0
  0
BLOCK
  8
0
  2
ANNULUSP
 70
64
 10
0.0000
 20
0.0000
 30
0.0000
  3
ANNULUSP
  0
POLYLINE
  8
0
 66
1
 10
0.0000
 20
0.0000
 30
0.0000
 40
0.5000
 41
0.5000
 70
0
  0
VERTEX
  8
0
 10
0.0000
 20
-0.2500
 30
0.0000
 42
1.0000
  0
VERTEX
  8
0
 10
0.0000
 20
0.2500
 30
0.0000
 42
1.0000
  0
VERTEX
  8
0
 10
0.0000
 20
-0.2500
 30
0.0000
  0
SEQEND
  8
0
  0
ENDBLK
  8
0
  0
BLOCK
  8
0
  2
THERMALP
 70
64
 10
0.0000
 20
0.0000
 30
0.0000
  3
THERMALP
  0
POLYLINE
  8
0
 66
1
 10
0.0000
 20
0.0000
 30
0.0000
 40
0.1000
 41
0.1000
 70
0
  0
VERTEX
  8
0
 10
-0.2379
 20
0.4500
 30
0.0000
  0
VERTEX
  8
0
 10
0.2379
 20
0.4500
 30
0.0000
  0
SEQEND
  8
0
  0
POLYLINE
  8
0
 66
1
 10
0.0000
 20
0.0000
 30
0.0000
 40
0.0500
 41
0.0500
 70
0
  0
VERTEX
  8
0
 10
0.2379
 20
0.4250
 30
0.0000
 42
1.0000
  0
VERTEX
  8
0
 10
0.2379
 20
0.4750
 30
0.0000
  0
SEQEND
  8
0
  0
POLYLINE
  8
0
 66
1
 10
0.0000
 20
0.0000
 30
0.0000
 40
0.0500
 41
0.0500
 70
0
  0
VERTEX
  8
0
 10
-0.2379
 20
0.4750
 30
0.0000
 42
1.0000
  0
VERTEX
  8
0
 10
-0.2379
 20
0.4250
 30
0.0000
  0
SEQEND
  8
0
  0
POLYLINE
  8
0
 66
1
 10
0.0000
 20
0.0000
 30
0.0000
 40
0.1000
 41
0.1000
 70
0
  0
VERTEX
  8
0
 10
0.4500
 20
0.2379
 30
0.0000
  0
VERTEX
  8
0
 10
0.4500
 20
-0.2379
 30
0.0000
  0
SEQEND
  8
0
  0
POLYLINE
  8
0
 66
1
 10
0.0000
 20
0.0000
 30
0.0000
 40
0.0500
 41
0.0500
 70
0
  0
VERTEX
  8
0
 10
0.4250
 20
-0.2379
 30
0.0000
 42
1.0000
  0
VERTEX
  8
0
 10
0.4750
 20
-0.2379
 30
0.0000
  0
SEQEND
  8
0
  0
POLYLINE
  8
0
 66
1
 10
0.0000
 20
0.0000
 30
0.0000
 40
0.0500
 41
0.0500
 70
0
  0
VERTEX
  8
0
 10
0.4750
 20
0.2379
 30
0.0000
 42
1.0000
  0
VERTEX
  8
0
 10
0.4250
 20
0.2379
 30
0.0000
  0
SEQEND
  8
0
  0
POLYLINE
  8
0
 66
1
 10
0.0000
 20
0.0000
 30
0.0000
 40
0.1000
 41
0.1000
 70
0
  0
VERTEX
  8
0
 10
0.2379
 20
-0.4500
 30
0.0000
  0
VERTEX
  8
0
 10
-0.2379
 20
-0.4500
 30
0.0000
  0
SEQEND
  8
0
  0
POLYLINE
  8
0
 66
1
 10
0.0000
 20
0.0000
 30
0.0000
 40
0.0500
 41
0.0500
 70
0
  0
VERTEX
  8
0
 10
-0.2379
 20
-0.4250
 30
0.0000
 42
1.0000
  0
VERTEX
  8
0
 10
-0.2379
 20
-0.4750
 30
0.0000
  0
SEQEND
  8
0
  0
POLYLINE
  8
0
 66
1
 10
0.0000
 20
0.0000
 30
0.0000
 40
0.0500
 41
0.0500
 70
0
  0
VERTEX
  8
0
 10
0.2379
 20
-0.4750
 30
0.0000
 42
1.0000
  0
VERTEX
  8
0
 10
0.2379
 20
-0.4250
 30
0.0000
  0
SEQEND
  8
0
  0
POLYLINE
  8
0
 66
1
 10
0.0000
 20
0.0000
 30
0.0000
 40
0.1000
 41
0.1000
 70
0
  0
VERTEX
  8
0
 10
-0.4500
 20
-0.2379
 30
0.0000
  0
VERTEX
  8
0
 10
-0.4500
 20
0.2379
 30
0.0000
  0
SEQEND
  8
0
  0
POLYLINE
  8
0
 66
1
 10
0.0000
 20
0.0000
 30
0.0000
 40
0.0500
 41
0.0500
 70
0
  0
VERTEX
  8
0
 10
-0.4250
 20
0.2379
 30
0.0000
 42
1.0000
  0
VERTEX
  8
0
 10
-0.4750
 20
0.2379
 30
0.0000
  0
SEQEND
  8
0
  0
POLYLINE
  8
0
 66
1
 10
0.0000
 20
0.0000
 30
0.0000
 40
0.0500
 41
0.0500
 70
0
  0
VERTEX
  8
0
 10
-0.4750
 20
-0.2379
 30
0.0000
 42
1.0000
  0
VERTEX
  8
0
 10
-0.4250
 20
-0.2379
 30
0.0000
  0
SEQEND
  8
0
  0
ENDBLK
  8
0
  0
BLOCK
  8
0
  2
OCTAGONV
 70
64
 10
0.0000
 20
0.0000
 30
0.0000
  3
OCTAGONV
  0
POLYLINE
  8
0
 66
1
 10
0.0000
 20
0.0000
 30
0.0000
 40
0.5000
 41
0.5000
 70
0
  0
VERTEX
  8
0
 10
-0.2500
 20
-0.1036
 30
0.0000
  0
VERTEX
  8
0
 10
-0.2500
 20
0.1036
 30
0.0000
  0
VERTEX
  8
0
 10
-0.1036
 20
0.2500
 30
0.0000
  0
VERTEX
  8
0
 10
0.1036
 20
0.2500
 30
0.0000
  0
VERTEX
  8
0
 10
0.2500
 20
0.1036
 30
0.0000
  0
VERTEX
  8
0
 10
0.2500
 20
-0.1036
 30
0.0000
  0
VERTEX
  8
0
 10
0.1036
 20
-0.2500
 30
0.0000
  0
VERTEX
  8
0
 10
-0.1036
 20
-0.2500
 30
0.0000
  0
VERTEX
  8
0
 10
-0.2500
 20
-0.1036
 30
0.0000
  0
VERTEX
  8
0
 10
-0.2500
 20
0.1036
 30
0.0000
  0
SEQEND
  8
0
  0
ENDBLK
  8
0
  0
BLOCK
  8
0
  2
SQUAREV
 70
64
 10
0.0000
 20
0.0000
 30
0.0000
  3
SQUAREV
  0
SOLID
  8
0
 10
-0.5000
 20
-0.5000
 30
0.0000
 11
0.5000
 21
-0.5000
 31
0.0000
 12
-0.5000
 22
0.5000
 32
0.0000
 13
0.5000
 23
0.5000
 33
0.0000
  0
ENDBLK
  8
0
  0
BLOCK
  8
0
  2
ROUNDV
 70
64
 10
0.0000
 20
0.0000
 30
0.0000
  3
ROUNDV
  0
POLYLINE
  8
0
 66
1
 10
0.0000
 20
0.0000
 30
0.0000
 40
0.5000
 41
0.5000
 70
0
  0
VERTEX
  8
0
 10
0.0000
 20
-0.2500
 30
0.0000
 42
1.0000
  0
VERTEX
  8
0
 10
0.0000
 20
0.2500
 30
0.0000
 42
1.0000
  0
VERTEX
  8
0
 10
0.0000
 20
-0.2500
 30
0.0000
  0
SEQEND
  8
0
  0
ENDBLK
  8
0
  0
BLOCK
  8
0
  2
ANNULUSV
 70
64
 10
0.0000
 20
0.0000
 30
0.0000
  3
ANNULUSV
  0
POLYLINE
  8
0
 66
1
 10
0.0000
 20
0.0000
 30
0.0000
 40
0.5000
 41
0.5000
 70
0
  0
VERTEX
  8
0
 10
0.0000
 20
-0.2500
 30
0.0000
 42
1.0000
  0
VERTEX
  8
0
 10
0.0000
 20
0.2500
 30
0.0000
 42
1.0000
  0
VERTEX
  8
0
 10
0.0000
 20
-0.2500
 30
0.0000
  0
SEQEND
  8
0
  0
ENDBLK
  8
0
  0
BLOCK
  8
0
  2
THERMALV
 70
64
 10
0.0000
 20
0.0000
 30
0.0000
  3
THERMALV
  0
POLYLINE
  8
0
 66
1
 10
0.0000
 20
0.0000
 30
0.0000
 40
0.1000
 41
0.1000
 70
0
  0
VERTEX
  8
0
 10
-0.2379
 20
0.4500
 30
0.0000
  0
VERTEX
  8
0
 10
0.2379
 20
0.4500
 30
0.0000
  0
SEQEND
  8
0
  0
POLYLINE
  8
0
 66
1
 10
0.0000
 20
0.0000
 30
0.0000
 40
0.0500
 41
0.0500
 70
0
  0
VERTEX
  8
0
 10
0.2379
 20
0.4250
 30
0.0000
 42
1.0000
  0
VERTEX
  8
0
 10
0.2379
 20
0.4750
 30
0.0000
  0
SEQEND
  8
0
  0
POLYLINE
  8
0
 66
1
 10
0.0000
 20
0.0000
 30
0.0000
 40
0.0500
 41
0.0500
 70
0
  0
VERTEX
  8
0
 10
-0.2379
 20
0.4750
 30
0.0000
 42
1.0000
  0
VERTEX
  8
0
 10
-0.2379
 20
0.4250
 30
0.0000
  0
SEQEND
  8
0
  0
POLYLINE
  8
0
 66
1
 10
0.0000
 20
0.0000
 30
0.0000
 40
0.1000
 41
0.1000
 70
0
  0
VERTEX
  8
0
 10
0.4500
 20
0.2379
 30
0.0000
  0
VERTEX
  8
0
 10
0.4500
 20
-0.2379
 30
0.0000
  0
SEQEND
  8
0
  0
POLYLINE
  8
0
 66
1
 10
0.0000
 20
0.0000
 30
0.0000
 40
0.0500
 41
0.0500
 70
0
  0
VERTEX
  8
0
 10
0.4250
 20
-0.2379
 30
0.0000
 42
1.0000
  0
VERTEX
  8
0
 10
0.4750
 20
-0.2379
 30
0.0000
  0
SEQEND
  8
0
  0
POLYLINE
  8
0
 66
1
 10
0.0000
 20
0.0000
 30
0.0000
 40
0.0500
 41
0.0500
 70
0
  0
VERTEX
  8
0
 10
0.4750
 20
0.2379
 30
0.0000
 42
1.0000
  0
VERTEX
  8
0
 10
0.4250
 20
0.2379
 30
0.0000
  0
SEQEND
  8
0
  0
POLYLINE
  8
0
 66
1
 10
0.0000
 20
0.0000
 30
0.0000
 40
0.1000
 41
0.1000
 70
0
  0
VERTEX
  8
0
 10
0.2379
 20
-0.4500
 30
0.0000
  0
VERTEX
  8
0
 10
-0.2379
 20
-0.4500
 30
0.0000
  0
SEQEND
  8
0
  0
POLYLINE
  8
0
 66
1
 10
0.0000
 20
0.0000
 30
0.0000
 40
0.0500
 41
0.0500
 70
0
  0
VERTEX
  8
0
 10
-0.2379
 20
-0.4250
 30
0.0000
 42
1.0000
  0
VERTEX
  8
0
 10
-0.2379
 20
-0.4750
 30
0.0000
  0
SEQEND
  8
0
  0
POLYLINE
  8
0
 66
1
 10
0.0000
 20
0.0000
 30
0.0000
 40
0.0500
 41
0.0500
 70
0
  0
VERTEX
  8
0
 10
0.2379
 20
-0.4750
 30
0.0000
 42
1.0000
  0
VERTEX
  8
0
 10
0.2379
 20
-0.4250
 30
0.0000
  0
SEQEND
  8
0
  0
POLYLINE
  8
0
 66
1
 10
0.0000
 20
0.0000
 30
0.0000
 40
0.1000
 41
0.1000
 70
0
  0
VERTEX
  8
0
 10
-0.4500
 20
-0.2379
 30
0.0000
  0
VERTEX
  8
0
 10
-0.4500
 20
0.2379
 30
0.0000
  0
SEQEND
  8
0
  0
POLYLINE
  8
0
 66
1
 10
0.0000
 20
0.0000
 30
0.0000
 40
0.0500
 41
0.0500
 70
0
  0
VERTEX
  8
0
 10
-0.4250
 20
0.2379
 30
0.0000
 42
1.0000
  0
VERTEX
  8
0
 10
-0.4750
 20
0.2379
 30
0.0000
  0
SEQEND
  8
0
  0
POLYLINE
  8
0
 66
1
 10
0.0000
 20
0.0000
 30
0.0000
 40
0.0500
 41
0.0500
 70
0
  0
VERTEX
  8
0
 10
-0.4750
 20
-0.2379
 30
0.0000
 42
1.0000
  0
VERTEX
  8
0
 10
-0.4250
 20
-0.2379
 30
0.0000
  0
SEQEND
  8
0
  0
ENDBLK
  8
0
  0
BLOCK
  8
0
  2
LONGP100
 70
64
 10
0.0000
 20
0.0000
 30
0.0000
  3
LONGP100
  0
POLYLINE
  8
0
 66
1
 10
0.0000
 20
0.0000
 30
0.0000
 40
1.0000
 41
1.0000
 70
0
  0
VERTEX
  8
0
 10
-0.5000
 20
0.0000
 30
0.0000
  0
VERTEX
  8
0
 10
0.5000
 20
0.0000
 30
0.0000
  0
SEQEND
  8
0
  0
POLYLINE
  8
0
 66
1
 10
0.0000
 20
0.0000
 30
0.0000
 40
0.5000
 41
0.5000
 70
0
  0
VERTEX
  8
0
 10
0.5000
 20
-0.2500
 30
0.0000
 42
1.0000
  0
VERTEX
  8
0
 10
0.5000
 20
0.2500
 30
0.0000
  0
SEQEND
  8
0
  0
POLYLINE
  8
0
 66
1
 10
0.0000
 20
0.0000
 30
0.0000
 40
0.5000
 41
0.5000
 70
0
  0
VERTEX
  8
0
 10
-0.5000
 20
0.2500
 30
0.0000
 42
1.0000
  0
VERTEX
  8
0
 10
-0.5000
 20
-0.2500
 30
0.0000
  0
SEQEND
  8
0
  0
ENDBLK
  8
0
  0
ENDSEC
  0
SECTION
  2
ENTITIES
  0
LINE
  8
20
 10
0.0000
 20
0.0000
 30
0.0000
 11
12.3700
 21
0.0000
 31
0.0000
  0
LINE
  8
20
 10
12.3700
 20
0.0000
 30
0.0000
 11
12.3700
 21
12.6900
 31
0.0000
  0
LINE
  8
20
 10
12.3700
 20
12.6900
 30
0.0000
 11
0.0000
 21
12.6900
 31
0.0000
  0
LINE
  8
20
 10
0.0000
 20
12.6900
 30
0.0000
 11
0.0000
 21
0.0000
 31
0.0000
  0
POINT
  8
23
 10
6.3500
 20
6.3500
 30
0.0000
  0
POLYLINE
  8
21
 66
1
 10
0.0000
 20
0.0000
 30
0.0000
 40
0.1524
 41
0.1524
 70
0
  0
VERTEX
  8
21
 10
8.2550
 20
1.2700
 30
0.0000
  0
VERTEX
  8
21
 10
8.8900
 20
1.9050
 30
0.0000
  0
SEQEND
  8
0
  0
POLYLINE
  8
21
 66
1
 10
0.0000
 20
0.0000
 30
0.0000
 40
0.0762
 41
0.0762
 70
0
  0
VERTEX
  8
21
 10
8.9169
 20
1.8781
 30
0.0000
 42
1.0000
  0
VERTEX
  8
21
 10
8.8631
 20
1.9319
 30
0.0000
  0
SEQEND
  8
0
  0
POLYLINE
  8
21
 66
1
 10
0.0000
 20
0.0000
 30
0.0000
 40
0.0762
 41
0.0762
 70
0
  0
VERTEX
  8
21
 10
8.2281
 20
1.2969
 30
0.0000
 42
1.0000
  0
VERTEX
  8
21
 10
8.2819
 20
1.2431
 30
0.0000
  0
SEQEND
  8
0
  0
POLYLINE
  8
21
 66
1
 10
0.0000
 20
0.0000
 30
0.0000
 40
0.1524
 41
0.1524
 70
0
  0
VERTEX
  8
21
 10
8.8900
 20
3.1750
 30
0.0000
  0
VERTEX
  8
21
 10
8.2550
 20
3.8100
 30
0.0000
  0
SEQEND
  8
0
  0
POLYLINE
  8
21
 66
1
 10
0.0000
 20
0.0000
 30
0.0000
 40
0.0762
 41
0.0762
 70
0
  0
VERTEX
  8
21
 10
8.2819
 20
3.8369
 30
0.0000
 42
1.0000
  0
VERTEX
  8
21
 10
8.2281
 20
3.7831
 30
0.0000
  0
SEQEND
  8
0
  0
POLYLINE
  8
21
 66
1
 10
0.0000
 20
0.0000
 30
0.0000
 40
0.0762
 41
0.0762
 70
0
  0
VERTEX
  8
21
 10
8.8631
 20
3.1481
 30
0.0000
 42
1.0000
  0
VERTEX
  8
21
 10
8.9169
 20
3.2019
 30
0.0000
  0
SEQEND
  8
0
  0
POLYLINE
  8
21
 66
1
 10
0.0000
 20
0.0000
 30
0.0000
 40
0.1524
 41
0.1524
 70
0
  0
VERTEX
  8
21
 10
8.2550
 20
3.8100
 30
0.0000
  0
VERTEX
  8
21
 10
8.8900
 20
4.4450
 30
0.0000
  0
SEQEND
  8
0
  0
POLYLINE
  8
21
 66
1
 10
0.0000
 20
0.0000
 30
0.0000
 40
0.0762
 41
0.0762
 70
0
  0
VERTEX
  8
21
 10
8.9169
 20
4.4181
 30
0.0000
 42
1.0000
  0
VERTEX
  8
21
 10
8.8631
 20
4.4719
 30
0.0000
  0
SEQEND
  8
0
  0
POLYLINE
  8
21
 66
1
 10
0.0000
 20
0.0000
 30
0.0000
 40
0.0762
 41
0.0762
 70
0
  0
VERTEX
  8
21
 10
8.2281
 20
3.8369
 30
0.0000
 42
1.0000
  0
VERTEX
  8
21
 10
8.2819
 20
3.7831
 30
0.0000
  0
SEQEND
  8
0
  0
POLYLINE
  8
21
 66
1
 10
0.0000
 20
0.0000
 30
0.0000
 40
0.1524
 41
0.1524
 70
0
  0
VERTEX
  8
21
 10
8.8900
 20
5.7150
 30
0.0000
  0
VERTEX
  8
21
 10
8.2550
 20
6.3500
 30
0.0000
  0
SEQEND
  8
0
  0
POLYLINE
  8
21
 66
1
 10
0.0000
 20
0.0000
 30
0.0000
 40
0.0762
 41
0.0762
 70
0
  0
VERTEX
  8
21
 10
8.2819
 20
6.3769
 30
0.0000
 42
1.0000
  0
VERTEX
  8
21
 10
8.2281
 20
6.3231
 30
0.0000
  0
SEQEND
  8
0
  0
POLYLINE
  8
21
 66
1
 10
0.0000
 20
0.0000
 30
0.0000
 40
0.0762
 41
0.0762
 70
0
  0
VERTEX
  8
21
 10
8.8631
 20
5.6881
 30
0.0000
 42
1.0000
  0
VERTEX
  8
21
 10
8.9169
 20
5.7419
 30
0.0000
  0
SEQEND
  8
0
  0
POLYLINE
  8
21
 66
1
 10
0.0000
 20
0.0000
 30
0.0000
 40
0.1524
 41
0.1524
 70
0
  0
VERTEX
  8
21
 10
8.2550
 20
6.3500
 30
0.0000
  0
VERTEX
  8
21
 10
8.8900
 20
6.9850
 30
0.0000
  0
SEQEND
  8
0
  0
POLYLINE
  8
21
 66
1
 10
0.0000
 20
0.0000
 30
0.0000
 40
0.0762
 41
0.0762
 70
0
  0
VERTEX
  8
21
 10
8.9169
 20
6.9581
 30
0.0000
 42
1.0000
  0
VERTEX
  8
21
 10
8.8631
 20
7.0119
 30
0.0000
  0
SEQEND
  8
0
  0
POLYLINE
  8
21
 66
1
 10
0.0000
 20
0.0000
 30
0.0000
 40
0.0762
 41
0.0762
 70
0
  0
VERTEX
  8
21
 10
8.2281
 20
6.3769
 30
0.0000
 42
1.0000
  0
VERTEX
  8
21
 10
8.2819
 20
6.3231
 30
0.0000
  0
SEQEND
  8
0
  0
POLYLINE
  8
21
 66
1
 10
0.0000
 20
0.0000
 30
0.0000
 40
0.1524
 41
0.1524
 70
0
  0
VERTEX
  8
21
 10
8.8900
 20
8.2550
 30
0.0000
  0
VERTEX
  8
21
 10
8.2550
 20
8.8900
 30
0.0000
  0
SEQEND
  8
0
  0
POLYLINE
  8
21
 66
1
 10
0.0000
 20
0.0000
 30
0.0000
 40
0.0762
 41
0.0762
 70
0
  0
VERTEX
  8
21
 10
8.2819
 20
8.9169
 30
0.0000
 42
1.0000
  0
VERTEX
  8
21
 10
8.2281
 20
8.8631
 30
0.0000
  0
SEQEND
  8
0
  0
POLYLINE
  8
21
 66
1
 10
0.0000
 20
0.0000
 30
0.0000
 40
0.0762
 41
0.0762
 70
0
  0
VERTEX
  8
21
 10
8.8631
 20
8.2281
 30
0.0000
 42
1.0000
  0
VERTEX
  8
21
 10
8.9169
 20
8.2819
 30
0.0000
  0
SEQEND
  8
0
  0
POLYLINE
  8
21
 66
1
 10
0.0000
 20
0.0000
 30
0.0000
 40
0.1524
 41
0.1524
 70
0
  0
VERTEX
  8
21
 10
8.2550
 20
1.2700
 30
0.0000
  0
VERTEX
  8
21
 10
4.4450
 20
1.2700
 30
0.0000
  0
SEQEND
  8
0
  0
POLYLINE
  8
21
 66
1
 10
0.0000
 20
0.0000
 30
0.0000
 40
0.0762
 41
0.0762
 70
0
  0
VERTEX
  8
21
 10
4.4450
 20
1.3081
 30
0.0000
 42
1.0000
  0
VERTEX
  8
21
 10
4.4450
 20
1.2319
 30
0.0000
  0
SEQEND
  8
0
  0
POLYLINE
  8
21
 66
1
 10
0.0000
 20
0.0000
 30
0.0000
 40
0.0762
 41
0.0762
 70
0
  0
VERTEX
  8
21
 10
8.2550
 20
1.2319
 30
0.0000
 42
1.0000
  0
VERTEX
  8
21
 10
8.2550
 20
1.3081
 30
0.0000
  0
SEQEND
  8
0
  0
POLYLINE
  8
21
 66
1
 10
0.0000
 20
0.0000
 30
0.0000
 40
0.1524
 41
0.1524
 70
0
  0
VERTEX
  8
21
 10
4.4450
 20
1.2700
 30
0.0000
  0
VERTEX
  8
21
 10
3.8100
 20
1.9050
 30
0.0000
  0
SEQEND
  8
0
  0
POLYLINE
  8
21
 66
1
 10
0.0000
 20
0.0000
 30
0.0000
 40
0.0762
 41
0.0762
 70
0
  0
VERTEX
  8
21
 10
3.8369
 20
1.9319
 30
0.0000
 42
1.0000
  0
VERTEX
  8
21
 10
3.7831
 20
1.8781
 30
0.0000
  0
SEQEND
  8
0
  0
POLYLINE
  8
21
 66
1
 10
0.0000
 20
0.0000
 30
0.0000
 40
0.0762
 41
0.0762
 70
0
  0
VERTEX
  8
21
 10
4.4181
 20
1.2431
 30
0.0000
 42
1.0000
  0
VERTEX
  8
21
 10
4.4719
 20
1.2969
 30
0.0000
  0
SEQEND
  8
0
  0
POLYLINE
  8
21
 66
1
 10
0.0000
 20
0.0000
 30
0.0000
 40
0.1524
 41
0.1524
 70
0
  0
VERTEX
  8
21
 10
3.8100
 20
1.9050
 30
0.0000
  0
VERTEX
  8
21
 10
3.8100
 20
3.1750
 30
0.0000
  0
SEQEND
  8
0
  0
POLYLINE
  8
21
 66
1
 10
0.0000
 20
0.0000
 30
0.0000
 40
0.0762
 41
0.0762
 70
0
  0
VERTEX
  8
21
 10
3.8481
 20
3.1750
 30
0.0000
 42
1.0000
  0
VERTEX
  8
21
 10
3.7719
 20
3.1750
 30
0.0000
  0
SEQEND
  8
0
  0
POLYLINE
  8
21
 66
1
 10
0.0000
 20
0.0000
 30
0.0000
 40
0.0762
 41
0.0762
 70
0
  0
VERTEX
  8
21
 10
3.7719
 20
1.9050
 30
0.0000
 42
1.0000
  0
VERTEX
  8
21
 10
3.8481
 20
1.9050
 30
0.0000
  0
SEQEND
  8
0
  0
POLYLINE
  8
21
 66
1
 10
0.0000
 20
0.0000
 30
0.0000
 40
0.1524
 41
0.1524
 70
0
  0
VERTEX
  8
21
 10
3.8100
 20
3.1750
 30
0.0000
  0
VERTEX
  8
21
 10
4.4450
 20
3.8100
 30
0.0000
  0
SEQEND
  8
0
  0
POLYLINE
  8
21
 66
1
 10
0.0000
 20
0.0000
 30
0.0000
 40
0.0762
 41
0.0762
 70
0
  0
VERTEX
  8
21
 10
4.4719
 20
3.7831
 30
0.0000
 42
1.0000
  0
VERTEX
  8
21
 10
4.4181
 20
3.8369
 30
0.0000
  0
SEQEND
  8
0
  0
POLYLINE
  8
21
 66
1
 10
0.0000
 20
0.0000
 30
0.0000
 40
0.0762
 41
0.0762
 70
0
  0
VERTEX
  8
21
 10
3.7831
 20
3.2019
 30
0.0000
 42
1.0000
  0
VERTEX
  8
21
 10
3.8369
 20
3.1481
 30
0.0000
  0
SEQEND
  8
0
  0
POLYLINE
  8
21
 66
1
 10
0.0000
 20
0.0000
 30
0.0000
 40
0.1524
 41
0.1524
 70
0
  0
VERTEX
  8
21
 10
4.4450
 20
3.8100
 30
0.0000
  0
VERTEX
  8
21
 10
3.8100
 20
4.4450
 30
0.0000
  0
SEQEND
  8
0
  0
POLYLINE
  8
21
 66
1
 10
0.0000
 20
0.0000
 30
0.0000
 40
0.0762
 41
0.0762
 70
0
  0
VERTEX
  8
21
 10
3.8369
 20
4.4719
 30
0.0000
 42
1.0000
  0
VERTEX
  8
21
 10
3.7831
 20
4.4181
 30
0.0000
  0
SEQEND
  8
0
  0
POLYLINE
  8
21
 66
1
 10
0.0000
 20
0.0000
 30
0.0000
 40
0.0762
 41
0.0762
 70
0
  0
VERTEX
  8
21
 10
4.4181
 20
3.7831
 30
0.0000
 42
1.0000
  0
VERTEX
  8
21
 10
4.4719
 20
3.8369
 30
0.0000
  0
SEQEND
  8
0
  0
POLYLINE
  8
21
 66
1
 10
0.0000
 20
0.0000
 30
0.0000
 40
0.1524
 41
0.1524
 70
0
  0
VERTEX
  8
21
 10
3.8100
 20
4.4450
 30
0.0000
  0
VERTEX
  8
21
 10
3.8100
 20
5.7150
 30
0.0000
  0
SEQEND
  8
0
  0
POLYLINE
  8
21
 66
1
 10
0.0000
 20
0.0000
 30
0.0000
 40
0.0762
 41
0.0762
 70
0
  0
VERTEX
  8
21
 10
3.8481
 20
5.7150
 30
0.0000
 42
1.0000
  0
VERTEX
  8
21
 10
3.7719
 20
5.7150
 30
0.0000
  0
SEQEND
  8
0
  0
POLYLINE
  8
21
 66
1
 10
0.0000
 20
0.0000
 30
0.0000
 40
0.0762
 41
0.0762
 70
0
  0
VERTEX
  8
21
 10
3.7719
 20
4.4450
 30
0.0000
 42
1.0000
  0
VERTEX
  8
21
 10
3.8481
 20
4.4450
 30
0.0000
  0
SEQEND
  8
0
  0
POLYLINE
  8
21
 66
1
 10
0.0000
 20
0.0000
 30
0.0000
 40
0.1524
 41
0.1524
 70
0
  0
VERTEX
  8
21
 10
3.8100
 20
5.7150
 30
0.0000
  0
VERTEX
  8
21
 10
4.4450
 20
6.3500
 30
0.0000
  0
SEQEND
  8
0
  0
POLYLINE
  8
21
 66
1
 10
0.0000
 20
0.0000
 30
0.0000
 40
0.0762
 41
0.0762
 70
0
  0
VERTEX
  8
21
 10
4.4719
 20
6.3231
 30
0.0000
 42
1.0000
  0
VERTEX
  8
21
 10
4.4181
 20
6.3769
 30
0.0000
  0
SEQEND
  8
0
  0
POLYLINE
  8
21
 66
1
 10
0.0000
 20
0.0000
 30
0.0000
 40
0.0762
 41
0.0762
 70
0
  0
VERTEX
  8
21
 10
3.7831
 20
5.7419
 30
0.0000
 42
1.0000
  0
VERTEX
  8
21
 10
3.8369
 20
5.6881
 30
0.0000
  0
SEQEND
  8
0
  0
POLYLINE
  8
21
 66
1
 10
0.0000
 20
0.0000
 30
0.0000
 40
0.1524
 41
0.1524
 70
0
  0
VERTEX
  8
21
 10
4.4450
 20
6.3500
 30
0.0000
  0
VERTEX
  8
21
 10
3.8100
 20
6.9850
 30
0.0000
  0
SEQEND
  8
0
  0
POLYLINE
  8
21
 66
1
 10
0.0000
 20
0.0000
 30
0.0000
 40
0.0762
 41
0.0762
 70
0
  0
VERTEX
  8
21
 10
3.8369
 20
7.0119
 30
0.0000
 42
1.0000
  0
VERTEX
  8
21
 10
3.7831
 20
6.9581
 30
0.0000
  0
SEQEND
  8
0
  0
POLYLINE
  8
21
 66
1
 10
0.0000
 20
0.0000
 30
0.0000
 40
0.0762
 41
0.0762
 70
0
  0
VERTEX
  8
21
 10
4.4181
 20
6.3231
 30
0.0000
 42
1.0000
  0
VERTEX
  8
21
 10
4.4719
 20
6.3769
 30
0.0000
  0
SEQEND
  8
0
  0
POLYLINE
  8
21
 66
1
 10
0.0000
 20
0.0000
 30
0.0000
 40
0.1524
 41
0.1524
 70
0
  0
VERTEX
  8
21
 10
3.8100
 20
6.9850
 30
0.0000
  0
VERTEX
  8
21
 10
3.8100
 20
8.2550
 30
0.0000
  0
SEQEND
  8
0
  0
POLYLINE
  8
21
 66
1
 10
0.0000
 20
0.0000
 30
0.0000
 40
0.0762
 41
0.0762
 70
0
  0
VERTEX
  8
21
 10
3.8481
 20
8.2550
 30
0.0000
 42
1.0000
  0
VERTEX
  8
21
 10
3.7719
 20
8.2550
 30
0.0000
  0
SEQEND
  8
0
  0
POLYLINE
  8
21
 66
1
 10
0.0000
 20
0.0000
 30
0.0000
 40
0.0762
 41
0.0762
 70
0
  0
VERTEX
  8
21
 10
3.7719
 20
6.9850
 30
0.0000
 42
1.0000
  0
VERTEX
  8
21
 10
3.8481
 20
6.9850
 30
0.0000
  0
SEQEND
  8
0
  0
POLYLINE
  8
21
 66
1
 10
0.0000
 20
0.0000
 30
0.0000
 40
0.1524
 41
0.1524
 70
0
  0
VERTEX
  8
21
 10
3.8100
 20
8.2550
 30
0.0000
  0
VERTEX
  8
21
 10
4.4450
 20
8.8900
 30
0.0000
  0
SEQEND
  8
0
  0
POLYLINE
  8
21
 66
1
 10
0.0000
 20
0.0000
 30
0.0000
 40
0.0762
 41
0.0762
 70
0
  0
VERTEX
  8
21
 10
4.4719
 20
8.8631
 30
0.0000
 42
1.0000
  0
VERTEX
  8
21
 10
4.4181
 20
8.9169
 30
0.0000
  0
SEQEND
  8
0
  0
POLYLINE
  8
21
 66
1
 10
0.0000
 20
0.0000
 30
0.0000
 40
0.0762
 41
0.0762
 70
0
  0
VERTEX
  8
21
 10
3.7831
 20
8.2819
 30
0.0000
 42
1.0000
  0
VERTEX
  8
21
 10
3.8369
 20
8.2281
 30
0.0000
  0
SEQEND
  8
0
  0
POLYLINE
  8
21
 66
1
 10
0.0000
 20
0.0000
 30
0.0000
 40
0.1524
 41
0.1524
 70
0
  0
VERTEX
  8
21
 10
4.4450
 20
3.8100
 30
0.0000
  0
VERTEX
  8
21
 10
8.2550
 20
3.8100
 30
0.0000
  0
SEQEND
  8
0
  0
POLYLINE
  8
21
 66
1
 10
0.0000
 20
0.0000
 30
0.0000
 40
0.0762
 41
0.0762
 70
0
  0
VERTEX
  8
21
 10
8.2550
 20
3.7719
 30
0.0000
 42
1.0000
  0
VERTEX
  8
21
 10
8.2550
 20
3.8481
 30
0.0000
  0
SEQEND
  8
0
  0
POLYLINE
  8
21
 66
1
 10
0.0000
 20
0.0000
 30
0.0000
 40
0.0762
 41
0.0762
 70
0
  0
VERTEX
  8
21
 10
4.4450
 20
3.8481
 30
0.0000
 42
1.0000
  0
VERTEX
  8
21
 10
4.4450
 20
3.7719
 30
0.0000
  0
SEQEND
  8
0
  0
POLYLINE
  8
21
 66
1
 10
0.0000
 20
0.0000
 30
0.0000
 40
0.1524
 41
0.1524
 70
0
  0
VERTEX
  8
21
 10
4.4450
 20
6.3500
 30
0.0000
  0
VERTEX
  8
21
 10
8.2550
 20
6.3500
 30
0.0000
  0
SEQEND
  8
0
  0
POLYLINE
  8
21
 66
1
 10
0.0000
 20
0.0000
 30
0.0000
 40
0.0762
 41
0.0762
 70
0
  0
VERTEX
  8
21
 10
8.2550
 20
6.3119
 30
0.0000
 42
1.0000
  0
VERTEX
  8
21
 10
8.2550
 20
6.3881
 30
0.0000
  0
SEQEND
  8
0
  0
POLYLINE
  8
21
 66
1
 10
0.0000
 20
0.0000
 30
0.0000
 40
0.0762
 41
0.0762
 70
0
  0
VERTEX
  8
21
 10
4.4450
 20
6.3881
 30
0.0000
 42
1.0000
  0
VERTEX
  8
21
 10
4.4450
 20
6.3119
 30
0.0000
  0
SEQEND
  8
0
  0
POLYLINE
  8
21
 66
1
 10
0.0000
 20
0.0000
 30
0.0000
 40
0.1524
 41
0.1524
 70
0
  0
VERTEX
  8
21
 10
4.4450
 20
8.8900
 30
0.0000
  0
VERTEX
  8
21
 10
8.2550
 20
8.8900
 30
0.0000
  0
SEQEND
  8
0
  0
POLYLINE
  8
21
 66
1
 10
0.0000
 20
0.0000
 30
0.0000
 40
0.0762
 41
0.0762
 70
0
  0
VERTEX
  8
21
 10
8.2550
 20
8.8519
 30
0.0000
 42
1.0000
  0
VERTEX
  8
21
 10
8.2550
 20
8.9281
 30
0.0000
  0
SEQEND
  8
0
  0
POLYLINE
  8
21
 66
1
 10
0.0000
 20
0.0000
 30
0.0000
 40
0.0762
 41
0.0762
 70
0
  0
VERTEX
  8
21
 10
4.4450
 20
8.9281
 30
0.0000
 42
1.0000
  0
VERTEX
  8
21
 10
4.4450
 20
8.8519
 30
0.0000
  0
SEQEND
  8
0
  0
POLYLINE
  8
21
 66
1
 10
0.0000
 20
0.0000
 30
0.0000
 40
0.1524
 41
0.1524
 70
0
  0
VERTEX
  8
21
 10
8.8900
 20
6.9850
 30
0.0000
  0
VERTEX
  8
21
 10
8.8900
 20
8.2550
 30
0.0000
  0
SEQEND
  8
0
  0
POLYLINE
  8
21
 66
1
 10
0.0000
 20
0.0000
 30
0.0000
 40
0.0762
 41
0.0762
 70
0
  0
VERTEX
  8
21
 10
8.9281
 20
8.2550
 30
0.0000
 42
1.0000
  0
VERTEX
  8
21
 10
8.8519
 20
8.2550
 30
0.0000
  0
SEQEND
  8
0
  0
POLYLINE
  8
21
 66
1
 10
0.0000
 20
0.0000
 30
0.0000
 40
0.0762
 41
0.0762
 70
0
  0
VERTEX
  8
21
 10
8.8519
 20
6.9850
 30
0.0000
 42
1.0000
  0
VERTEX
  8
21
 10
8.9281
 20
6.9850
 30
0.0000
  0
SEQEND
  8
0
  0
POLYLINE
  8
21
 66
1
 10
0.0000
 20
0.0000
 30
0.0000
 40
0.1524
 41
0.1524
 70
0
  0
VERTEX
  8
21
 10
8.8900
 20
4.4450
 30
0.0000
  0
VERTEX
  8
21
 10
8.8900
 20
5.7150
 30
0.0000
  0
SEQEND
  8
0
  0
POLYLINE
  8
21
 66
1
 10
0.0000
 20
0.0000
 30
0.0000
 40
0.0762
 41
0.0762
 70
0
  0
VERTEX
  8
21
 10
8.9281
 20
5.7150
 30
0.0000
 42
1.0000
  0
VERTEX
  8
21
 10
8.8519
 20
5.7150
 30
0.0000
  0
SEQEND
  8
0
  0
POLYLINE
  8
21
 66
1
 10
0.0000
 20
0.0000
 30
0.0000
 40
0.0762
 41
0.0762
 70
0
  0
VERTEX
  8
21
 10
8.8519
 20
4.4450
 30
0.0000
 42
1.0000
  0
VERTEX
  8
21
 10
8.9281
 20
4.4450
 30
0.0000
  0
SEQEND
  8
0
  0
POLYLINE
  8
21
 66
1
 10
0.0000
 20
0.0000
 30
0.0000
 40
0.1524
 41
0.1524
 70
0
  0
VERTEX
  8
21
 10
8.8900
 20
1.9050
 30
0.0000
  0
VERTEX
  8
21
 10
8.8900
 20
3.1750
 30
0.0000
  0
SEQEND
  8
0
  0
POLYLINE
  8
21
 66
1
 10
0.0000
 20
0.0000
 30
0.0000
 40
0.0762
 41
0.0762
 70
0
  0
VERTEX
  8
21
 10
8.9281
 20
3.1750
 30
0.0000
 42
1.0000
  0
VERTEX
  8
21
 10
8.8519
 20
3.1750
 30
0.0000
  0
SEQEND
  8
0
  0
POLYLINE
  8
21
 66
1
 10
0.0000
 20
0.0000
 30
0.0000
 40
0.0762
 41
0.0762
 70
0
  0
VERTEX
  8
21
 10
8.8519
 20
1.9050
 30
0.0000
 42
1.0000
  0
VERTEX
  8
21
 10
8.9281
 20
1.9050
 30
0.0000
  0
SEQEND
  8
0
  0
POLYLINE
  8
21
 66
1
 10
0.0000
 20
0.0000
 30
0.0000
 40
0.1524
 41
0.1524
 70
0
  0
VERTEX
  8
21
 10
8.2550
 20
8.8900
 30
0.0000
  0
VERTEX
  8
21
 10
8.8900
 20
9.5250
 30
0.0000
  0
SEQEND
  8
0
  0
POLYLINE
  8
21
 66
1
 10
0.0000
 20
0.0000
 30
0.0000
 40
0.0762
 41
0.0762
 70
0
  0
VERTEX
  8
21
 10
8.9169
 20
9.4981
 30
0.0000
 42
1.0000
  0
VERTEX
  8
21
 10
8.8631
 20
9.5519
 30
0.0000
  0
SEQEND
  8
0
  0
POLYLINE
  8
21
 66
1
 10
0.0000
 20
0.0000
 30
0.0000
 40
0.0762
 41
0.0762
 70
0
  0
VERTEX
  8
21
 10
8.2281
 20
8.9169
 30
0.0000
 42
1.0000
  0
VERTEX
  8
21
 10
8.2819
 20
8.8631
 30
0.0000
  0
SEQEND
  8
0
  0
POLYLINE
  8
21
 66
1
 10
0.0000
 20
0.0000
 30
0.0000
 40
0.1524
 41
0.1524
 70
0
  0
VERTEX
  8
21
 10
8.8900
 20
10.7950
 30
0.0000
  0
VERTEX
  8
21
 10
8.2550
 20
11.4300
 30
0.0000
  0
SEQEND
  8
0
  0
POLYLINE
  8
21
 66
1
 10
0.0000
 20
0.0000
 30
0.0000
 40
0.0762
 41
0.0762
 70
0
  0
VERTEX
  8
21
 10
8.2819
 20
11.4569
 30
0.0000
 42
1.0000
  0
VERTEX
  8
21
 10
8.2281
 20
11.4031
 30
0.0000
  0
SEQEND
  8
0
  0
POLYLINE
  8
21
 66
1
 10
0.0000
 20
0.0000
 30
0.0000
 40
0.0762
 41
0.0762
 70
0
  0
VERTEX
  8
21
 10
8.8631
 20
10.7681
 30
0.0000
 42
1.0000
  0
VERTEX
  8
21
 10
8.9169
 20
10.8219
 30
0.0000
  0
SEQEND
  8
0
  0
POLYLINE
  8
21
 66
1
 10
0.0000
 20
0.0000
 30
0.0000
 40
0.1524
 41
0.1524
 70
0
  0
VERTEX
  8
21
 10
4.4450
 20
8.8900
 30
0.0000
  0
VERTEX
  8
21
 10
3.8100
 20
9.5250
 30
0.0000
  0
SEQEND
  8
0
  0
POLYLINE
  8
21
 66
1
 10
0.0000
 20
0.0000
 30
0.0000
 40
0.0762
 41
0.0762
 70
0
  0
VERTEX
  8
21
 10
3.8369
 20
9.5519
 30
0.0000
 42
1.0000
  0
VERTEX
  8
21
 10
3.7831
 20
9.4981
 30
0.0000
  0
SEQEND
  8
0
  0
POLYLINE
  8
21
 66
1
 10
0.0000
 20
0.0000
 30
0.0000
 40
0.0762
 41
0.0762
 70
0
  0
VERTEX
  8
21
 10
4.4181
 20
8.8631
 30
0.0000
 42
1.0000
  0
VERTEX
  8
21
 10
4.4719
 20
8.9169
 30
0.0000
  0
SEQEND
  8
0
  0
POLYLINE
  8
21
 66
1
 10
0.0000
 20
0.0000
 30
0.0000
 40
0.1524
 41
0.1524
 70
0
  0
VERTEX
  8
21
 10
3.8100
 20
9.5250
 30
0.0000
  0
VERTEX
  8
21
 10
3.8100
 20
10.7950
 30
0.0000
  0
SEQEND
  8
0
  0
POLYLINE
  8
21
 66
1
 10
0.0000
 20
0.0000
 30
0.0000
 40
0.0762
 41
0.0762
 70
0
  0
VERTEX
  8
21
 10
3.8481
 20
10.7950
 30
0.0000
 42
1.0000
  0
VERTEX
  8
21
 10
3.7719
 20
10.7950
 30
0.0000
  0
SEQEND
  8
0
  0
POLYLINE
  8
21
 66
1
 10
0.0000
 20
0.0000
 30
0.0000
 40
0.0762
 41
0.0762
 70
0
  0
VERTEX
  8
21
 10
3.7719
 20
9.5250
 30
0.0000
 42
1.0000
  0
VERTEX
  8
21
 10
3.8481
 20
9.5250
 30
0.0000
  0
SEQEND
  8
0
  0
POLYLINE
  8
21
 66
1
 10
0.0000
 20
0.0000
 30
0.0000
 40
0.1524
 41
0.1524
 70
0
  0
VERTEX
  8
21
 10
3.8100
 20
10.7950
 30
0.0000
  0
VERTEX
  8
21
 10
4.4450
 20
11.4300
 30
0.0000
  0
SEQEND
  8
0
  0
POLYLINE
  8
21
 66
1
 10
0.0000
 20
0.0000
 30
0.0000
 40
0.0762
 41
0.0762
 70
0
  0
VERTEX
  8
21
 10
4.4719
 20
11.4031
 30
0.0000
 42
1.0000
  0
VERTEX
  8
21
 10
4.4181
 20
11.4569
 30
0.0000
  0
SEQEND
  8
0
  0
POLYLINE
  8
21
 66
1
 10
0.0000
 20
0.0000
 30
0.0000
 40
0.0762
 41
0.0762
 70
0
  0
VERTEX
  8
21
 10
3.7831
 20
10.8219
 30
0.0000
 42
1.0000
  0
VERTEX
  8
21
 10
3.8369
 20
10.7681
 30
0.0000
  0
SEQEND
  8
0
  0
POLYLINE
  8
21
 66
1
 10
0.0000
 20
0.0000
 30
0.0000
 40
0.1524
 41
0.1524
 70
0
  0
VERTEX
  8
21
 10
4.4450
 20
11.4300
 30
0.0000
  0
VERTEX
  8
21
 10
8.2550
 20
11.4300
 30
0.0000
  0
SEQEND
  8
0
  0
POLYLINE
  8
21
 66
1
 10
0.0000
 20
0.0000
 30
0.0000
 40
0.0762
 41
0.0762
 70
0
  0
VERTEX
  8
21
 10
8.2550
 20
11.3919
 30
0.0000
 42
1.0000
  0
VERTEX
  8
21
 10
8.2550
 20
11.4681
 30
0.0000
  0
SEQEND
  8
0
  0
POLYLINE
  8
21
 66
1
 10
0.0000
 20
0.0000
 30
0.0000
 40
0.0762
 41
0.0762
 70
0
  0
VERTEX
  8
21
 10
4.4450
 20
11.4681
 30
0.0000
 42
1.0000
  0
VERTEX
  8
21
 10
4.4450
 20
11.3919
 30
0.0000
  0
SEQEND
  8
0
  0
POLYLINE
  8
21
 66
1
 10
0.0000
 20
0.0000
 30
0.0000
 40
0.1524
 41
0.1524
 70
0
  0
VERTEX
  8
21
 10
8.8900
 20
9.5250
 30
0.0000
  0
VERTEX
  8
21
 10
8.8900
 20
10.7950
 30
0.0000
  0
SEQEND
  8
0
  0
POLYLINE
  8
21
 66
1
 10
0.0000
 20
0.0000
 30
0.0000
 40
0.0762
 41
0.0762
 70
0
  0
VERTEX
  8
21
 10
8.9281
 20
10.7950
 30
0.0000
 42
1.0000
  0
VERTEX
  8
21
 10
8.8519
 20
10.7950
 30
0.0000
  0
SEQEND
  8
0
  0
POLYLINE
  8
21
 66
1
 10
0.0000
 20
0.0000
 30
0.0000
 40
0.0762
 41
0.0762
 70
0
  0
VERTEX
  8
21
 10
8.8519
 20
9.5250
 30
0.0000
 42
1.0000
  0
VERTEX
  8
21
 10
8.9281
 20
9.5250
 30
0.0000
  0
SEQEND
  8
0
  0
POLYLINE
  8
25
 66
1
 10
0.0000
 20
0.0000
 30
0.0000
 40
0.1270
 41
0.1270
 70
0
  0
VERTEX
  8
25
 10
2.9208
 20
1.3335
 30
0.0000
  0
VERTEX
  8
25
 10
3.1115
 20
1.5242
 30
0.0000
  0
SEQEND
  8
0
  0
POLYLINE
  8
25
 66
1
 10
0.0000
 20
0.0000
 30
0.0000
 40
0.0635
 41
0.0635
 70
0
  0
VERTEX
  8
25
 10
3.1340
 20
1.5017
 30
0.0000
 42
1.0000
  0
VERTEX
  8
25
 10
3.0890
 20
1.5466
 30
0.0000
  0
SEQEND
  8
0
  0
POLYLINE
  8
25
 66
1
 10
0.0000
 20
0.0000
 30
0.0000
 40
0.0635
 41
0.0635
 70
0
  0
VERTEX
  8
25
 10
2.8984
 20
1.3560
 30
0.0000
 42
1.0000
  0
VERTEX
  8
25
 10
2.9433
 20
1.3110
 30
0.0000
  0
SEQEND
  8
0
  0
POLYLINE
  8
25
 66
1
 10
0.0000
 20
0.0000
 30
0.0000
 40
0.1270
 41
0.1270
 70
0
  0
VERTEX
  8
25
 10
3.1115
 20
1.5242
 30
0.0000
  0
VERTEX
  8
25
 10
3.1115
 20
1.7148
 30
0.0000
  0
SEQEND
  8
0
  0
POLYLINE
  8
25
 66
1
 10
0.0000
 20
0.0000
 30
0.0000
 40
0.0635
 41
0.0635
 70
0
  0
VERTEX
  8
25
 10
3.1433
 20
1.7148
 30
0.0000
 42
1.0000
  0
VERTEX
  8
25
 10
3.0797
 20
1.7148
 30
0.0000
  0
SEQEND
  8
0
  0
POLYLINE
  8
25
 66
1
 10
0.0000
 20
0.0000
 30
0.0000
 40
0.0635
 41
0.0635
 70
0
  0
VERTEX
  8
25
 10
3.0797
 20
1.5242
 30
0.0000
 42
1.0000
  0
VERTEX
  8
25
 10
3.1433
 20
1.5242
 30
0.0000
  0
SEQEND
  8
0
  0
POLYLINE
  8
25
 66
1
 10
0.0000
 20
0.0000
 30
0.0000
 40
0.1270
 41
0.1270
 70
0
  0
VERTEX
  8
25
 10
3.1115
 20
1.7148
 30
0.0000
  0
VERTEX
  8
25
 10
2.9208
 20
1.9055
 30
0.0000
  0
SEQEND
  8
0
  0
POLYLINE
  8
25
 66
1
 10
0.0000
 20
0.0000
 30
0.0000
 40
0.0635
 41
0.0635
 70
0
  0
VERTEX
  8
25
 10
2.9433
 20
1.9279
 30
0.0000
 42
1.0000
  0
VERTEX
  8
25
 10
2.8984
 20
1.8830
 30
0.0000
  0
SEQEND
  8
0
  0
POLYLINE
  8
25
 66
1
 10
0.0000
 20
0.0000
 30
0.0000
 40
0.0635
 41
0.0635
 70
0
  0
VERTEX
  8
25
 10
3.0890
 20
1.6924
 30
0.0000
 42
1.0000
  0
VERTEX
  8
25
 10
3.1340
 20
1.7373
 30
0.0000
  0
SEQEND
  8
0
  0
POLYLINE
  8
25
 66
1
 10
0.0000
 20
0.0000
 30
0.0000
 40
0.1270
 41
0.1270
 70
0
  0
VERTEX
  8
25
 10
2.9208
 20
1.9055
 30
0.0000
  0
VERTEX
  8
25
 10
1.9675
 20
1.9055
 30
0.0000
  0
SEQEND
  8
0
  0
POLYLINE
  8
25
 66
1
 10
0.0000
 20
0.0000
 30
0.0000
 40
0.0635
 41
0.0635
 70
0
  0
VERTEX
  8
25
 10
1.9675
 20
1.9372
 30
0.0000
 42
1.0000
  0
VERTEX
  8
25
 10
1.9675
 20
1.8737
 30
0.0000
  0
SEQEND
  8
0
  0
POLYLINE
  8
25
 66
1
 10
0.0000
 20
0.0000
 30
0.0000
 40
0.0635
 41
0.0635
 70
0
  0
VERTEX
  8
25
 10
2.9208
 20
1.8737
 30
0.0000
 42
1.0000
  0
VERTEX
  8
25
 10
2.9208
 20
1.9372
 30
0.0000
  0
SEQEND
  8
0
  0
POLYLINE
  8
25
 66
1
 10
0.0000
 20
0.0000
 30
0.0000
 40
0.1270
 41
0.1270
 70
0
  0
VERTEX
  8
25
 10
1.9675
 20
1.7148
 30
0.0000
  0
VERTEX
  8
25
 10
1.9675
 20
2.0962
 30
0.0000
  0
SEQEND
  8
0
  0
POLYLINE
  8
25
 66
1
 10
0.0000
 20
0.0000
 30
0.0000
 40
0.0635
 41
0.0635
 70
0
  0
VERTEX
  8
25
 10
1.9993
 20
2.0962
 30
0.0000
 42
1.0000
  0
VERTEX
  8
25
 10
1.9358
 20
2.0962
 30
0.0000
  0
SEQEND
  8
0
  0
POLYLINE
  8
25
 66
1
 10
0.0000
 20
0.0000
 30
0.0000
 40
0.0635
 41
0.0635
 70
0
  0
VERTEX
  8
25
 10
1.9358
 20
1.7148
 30
0.0000
 42
1.0000
  0
VERTEX
  8
25
 10
1.9993
 20
1.7148
 30
0.0000
  0
SEQEND
  8
0
  0
POLYLINE
  8
25
 66
1
 10
0.0000
 20
0.0000
 30
0.0000
 40
0.1270
 41
0.1270
 70
0
  0
VERTEX
  8
25
 10
3.1115
 20
2.5029
 30
0.0000
  0
VERTEX
  8
25
 10
1.9675
 20
2.5029
 30
0.0000
  0
SEQEND
  8
0
  0
POLYLINE
  8
25
 66
1
 10
0.0000
 20
0.0000
 30
0.0000
 40
0.0635
 41
0.0635
 70
0
  0
VERTEX
  8
25
 10
1.9675
 20
2.5346
 30
0.0000
 42
1.0000
  0
VERTEX
  8
25
 10
1.9675
 20
2.4711
 30
0.0000
  0
SEQEND
  8
0
  0
POLYLINE
  8
25
 66
1
 10
0.0000
 20
0.0000
 30
0.0000
 40
0.0635
 41
0.0635
 70
0
  0
VERTEX
  8
25
 10
3.1115
 20
2.4711
 30
0.0000
 42
1.0000
  0
VERTEX
  8
25
 10
3.1115
 20
2.5346
 30
0.0000
  0
SEQEND
  8
0
  0
POLYLINE
  8
25
 66
1
 10
0.0000
 20
0.0000
 30
0.0000
 40
0.1270
 41
0.1270
 70
0
  0
VERTEX
  8
25
 10
1.9675
 20
2.5029
 30
0.0000
  0
VERTEX
  8
25
 10
1.9675
 20
3.0749
 30
0.0000
  0
SEQEND
  8
0
  0
POLYLINE
  8
25
 66
1
 10
0.0000
 20
0.0000
 30
0.0000
 40
0.0635
 41
0.0635
 70
0
  0
VERTEX
  8
25
 10
1.9993
 20
3.0749
 30
0.0000
 42
1.0000
  0
VERTEX
  8
25
 10
1.9358
 20
3.0749
 30
0.0000
  0
SEQEND
  8
0
  0
POLYLINE
  8
25
 66
1
 10
0.0000
 20
0.0000
 30
0.0000
 40
0.0635
 41
0.0635
 70
0
  0
VERTEX
  8
25
 10
1.9358
 20
2.5029
 30
0.0000
 42
1.0000
  0
VERTEX
  8
25
 10
1.9993
 20
2.5029
 30
0.0000
  0
SEQEND
  8
0
  0
POLYLINE
  8
25
 66
1
 10
0.0000
 20
0.0000
 30
0.0000
 40
0.1270
 41
0.1270
 70
0
  0
VERTEX
  8
25
 10
1.9675
 20
3.0749
 30
0.0000
  0
VERTEX
  8
25
 10
2.1582
 20
3.2655
 30
0.0000
  0
SEQEND
  8
0
  0
POLYLINE
  8
25
 66
1
 10
0.0000
 20
0.0000
 30
0.0000
 40
0.0635
 41
0.0635
 70
0
  0
VERTEX
  8
25
 10
2.1806
 20
3.2431
 30
0.0000
 42
1.0000
  0
VERTEX
  8
25
 10
2.1357
 20
3.2880
 30
0.0000
  0
SEQEND
  8
0
  0
POLYLINE
  8
25
 66
1
 10
0.0000
 20
0.0000
 30
0.0000
 40
0.0635
 41
0.0635
 70
0
  0
VERTEX
  8
25
 10
1.9451
 20
3.0973
 30
0.0000
 42
1.0000
  0
VERTEX
  8
25
 10
1.9900
 20
3.0524
 30
0.0000
  0
SEQEND
  8
0
  0
POLYLINE
  8
25
 66
1
 10
0.0000
 20
0.0000
 30
0.0000
 40
0.1270
 41
0.1270
 70
0
  0
VERTEX
  8
25
 10
2.1582
 20
3.2655
 30
0.0000
  0
VERTEX
  8
25
 10
2.5395
 20
3.2655
 30
0.0000
  0
SEQEND
  8
0
  0
POLYLINE
  8
25
 66
1
 10
0.0000
 20
0.0000
 30
0.0000
 40
0.0635
 41
0.0635
 70
0
  0
VERTEX
  8
25
 10
2.5395
 20
3.2338
 30
0.0000
 42
1.0000
  0
VERTEX
  8
25
 10
2.5395
 20
3.2973
 30
0.0000
  0
SEQEND
  8
0
  0
POLYLINE
  8
25
 66
1
 10
0.0000
 20
0.0000
 30
0.0000
 40
0.0635
 41
0.0635
 70
0
  0
VERTEX
  8
25
 10
2.1582
 20
3.2973
 30
0.0000
 42
1.0000
  0
VERTEX
  8
25
 10
2.1582
 20
3.2338
 30
0.0000
  0
SEQEND
  8
0
  0
POLYLINE
  8
25
 66
1
 10
0.0000
 20
0.0000
 30
0.0000
 40
0.1270
 41
0.1270
 70
0
  0
VERTEX
  8
25
 10
2.5395
 20
3.2655
 30
0.0000
  0
VERTEX
  8
25
 10
2.7302
 20
3.0749
 30
0.0000
  0
SEQEND
  8
0
  0
POLYLINE
  8
25
 66
1
 10
0.0000
 20
0.0000
 30
0.0000
 40
0.0635
 41
0.0635
 70
0
  0
VERTEX
  8
25
 10
2.7077
 20
3.0524
 30
0.0000
 42
1.0000
  0
VERTEX
  8
25
 10
2.7526
 20
3.0973
 30
0.0000
  0
SEQEND
  8
0
  0
POLYLINE
  8
25
 66
1
 10
0.0000
 20
0.0000
 30
0.0000
 40
0.0635
 41
0.0635
 70
0
  0
VERTEX
  8
25
 10
2.5620
 20
3.2880
 30
0.0000
 42
1.0000
  0
VERTEX
  8
25
 10
2.5171
 20
3.2431
 30
0.0000
  0
SEQEND
  8
0
  0
POLYLINE
  8
25
 66
1
 10
0.0000
 20
0.0000
 30
0.0000
 40
0.1270
 41
0.1270
 70
0
  0
VERTEX
  8
25
 10
2.7302
 20
3.0749
 30
0.0000
  0
VERTEX
  8
25
 10
2.7302
 20
2.5029
 30
0.0000
  0
SEQEND
  8
0
  0
POLYLINE
  8
25
 66
1
 10
0.0000
 20
0.0000
 30
0.0000
 40
0.0635
 41
0.0635
 70
0
  0
VERTEX
  8
25
 10
2.6984
 20
2.5029
 30
0.0000
 42
1.0000
  0
VERTEX
  8
25
 10
2.7619
 20
2.5029
 30
0.0000
  0
SEQEND
  8
0
  0
POLYLINE
  8
25
 66
1
 10
0.0000
 20
0.0000
 30
0.0000
 40
0.0635
 41
0.0635
 70
0
  0
VERTEX
  8
25
 10
2.7619
 20
3.0749
 30
0.0000
 42
1.0000
  0
VERTEX
  8
25
 10
2.6984
 20
3.0749
 30
0.0000
  0
SEQEND
  8
0
  0
POLYLINE
  8
25
 66
1
 10
0.0000
 20
0.0000
 30
0.0000
 40
0.1270
 41
0.1270
 70
0
  0
VERTEX
  8
25
 10
2.3489
 20
3.6723
 30
0.0000
  0
VERTEX
  8
25
 10
1.9675
 20
4.0536
 30
0.0000
  0
SEQEND
  8
0
  0
POLYLINE
  8
25
 66
1
 10
0.0000
 20
0.0000
 30
0.0000
 40
0.0635
 41
0.0635
 70
0
  0
VERTEX
  8
25
 10
1.9900
 20
4.0761
 30
0.0000
 42
1.0000
  0
VERTEX
  8
25
 10
1.9451
 20
4.0312
 30
0.0000
  0
SEQEND
  8
0
  0
POLYLINE
  8
25
 66
1
 10
0.0000
 20
0.0000
 30
0.0000
 40
0.0635
 41
0.0635
 70
0
  0
VERTEX
  8
25
 10
2.3264
 20
3.6498
 30
0.0000
 42
1.0000
  0
VERTEX
  8
25
 10
2.3713
 20
3.6947
 30
0.0000
  0
SEQEND
  8
0
  0
POLYLINE
  8
25
 66
1
 10
0.0000
 20
0.0000
 30
0.0000
 40
0.1270
 41
0.1270
 70
0
  0
VERTEX
  8
25
 10
1.9675
 20
4.0536
 30
0.0000
  0
VERTEX
  8
25
 10
3.1115
 20
4.0536
 30
0.0000
  0
SEQEND
  8
0
  0
POLYLINE
  8
25
 66
1
 10
0.0000
 20
0.0000
 30
0.0000
 40
0.0635
 41
0.0635
 70
0
  0
VERTEX
  8
25
 10
3.1115
 20
4.0219
 30
0.0000
 42
1.0000
  0
VERTEX
  8
25
 10
3.1115
 20
4.0854
 30
0.0000
  0
SEQEND
  8
0
  0
POLYLINE
  8
25
 66
1
 10
0.0000
 20
0.0000
 30
0.0000
 40
0.0635
 41
0.0635
 70
0
  0
VERTEX
  8
25
 10
1.9675
 20
4.0854
 30
0.0000
 42
1.0000
  0
VERTEX
  8
25
 10
1.9675
 20
4.0219
 30
0.0000
  0
SEQEND
  8
0
  0
POLYLINE
  8
25
 66
1
 10
0.0000
 20
0.0000
 30
0.0000
 40
0.1270
 41
0.1270
 70
0
  0
VERTEX
  8
25
 10
3.1115
 20
3.6723
 30
0.0000
  0
VERTEX
  8
25
 10
3.1115
 20
4.4349
 30
0.0000
  0
SEQEND
  8
0
  0
POLYLINE
  8
25
 66
1
 10
0.0000
 20
0.0000
 30
0.0000
 40
0.0635
 41
0.0635
 70
0
  0
VERTEX
  8
25
 10
3.1433
 20
4.4349
 30
0.0000
 42
1.0000
  0
VERTEX
  8
25
 10
3.0797
 20
4.4349
 30
0.0000
  0
SEQEND
  8
0
  0
POLYLINE
  8
25
 66
1
 10
0.0000
 20
0.0000
 30
0.0000
 40
0.0635
 41
0.0635
 70
0
  0
VERTEX
  8
25
 10
3.0797
 20
3.6723
 30
0.0000
 42
1.0000
  0
VERTEX
  8
25
 10
3.1433
 20
3.6723
 30
0.0000
  0
SEQEND
  8
0
  0
INSERT
  8
51
  2
RECT
 10
7.6200
 20
2.5400
 30
0.0000
 41
0.5080
 42
0.5080
 43
1.0000
 50
90.0000
  0
INSERT
  8
51
  2
RECT
 10
5.0800
 20
2.5400
 30
0.0000
 41
0.5080
 42
0.5080
 43
1.0000
 50
90.0000
  0
INSERT
  8
51
  2
RECT
 10
5.0800
 20
5.0800
 30
0.0000
 41
0.5080
 42
0.5080
 43
1.0000
 50
90.0000
  0
INSERT
  8
51
  2
RECT
 10
7.6200
 20
5.0800
 30
0.0000
 41
0.5080
 42
0.5080
 43
1.0000
 50
90.0000
  0
INSERT
  8
51
  2
RECT
 10
5.0800
 20
7.6200
 30
0.0000
 41
0.5080
 42
0.5080
 43
1.0000
 50
90.0000
  0
INSERT
  8
51
  2
RECT
 10
7.6200
 20
7.6200
 30
0.0000
 41
0.5080
 42
0.5080
 43
1.0000
 50
90.0000
  0
INSERT
  8
51
  2
RECT
 10
5.0800
 20
10.1600
 30
0.0000
 41
0.5080
 42
0.5080
 43
1.0000
 50
90.0000
  0
INSERT
  8
51
  2
RECT
 10
7.6200
 20
10.1600
 30
0.0000
 41
0.5080
 42
0.5080
 43
1.0000
 50
90.0000
  0
INSERT
  8
17
  2
OCTAGONP
 10
7.6200
 20
2.5400
 30
0.0000
 41
1.5240
 42
1.5240
 43
1.0000
 50
90.0000
  0
INSERT
  8
17
  2
OCTAGONP
 10
7.6200
 20
2.5400
 30
0.0000
 41
1.5240
 42
1.5240
 43
1.0000
 50
90.0000
  0
INSERT
  8
17
  2
OCTAGONP
 10
5.0800
 20
2.5400
 30
0.0000
 41
1.5240
 42
1.5240
 43
1.0000
 50
90.0000
  0
INSERT
  8
17
  2
OCTAGONP
 10
5.0800
 20
2.5400
 30
0.0000
 41
1.5240
 42
1.5240
 43
1.0000
 50
90.0000
  0
INSERT
  8
17
  2
OCTAGONP
 10
7.6200
 20
5.0800
 30
0.0000
 41
1.5240
 42
1.5240
 43
1.0000
 50
90.0000
  0
INSERT
  8
17
  2
OCTAGONP
 10
7.6200
 20
5.0800
 30
0.0000
 41
1.5240
 42
1.5240
 43
1.0000
 50
90.0000
  0
INSERT
  8
17
  2
OCTAGONP
 10
5.0800
 20
5.0800
 30
0.0000
 41
1.5240
 42
1.5240
 43
1.0000
 50
90.0000
  0
INSERT
  8
17
  2
OCTAGONP
 10
5.0800
 20
5.0800
 30
0.0000
 41
1.5240
 42
1.5240
 43
1.0000
 50
90.0000
  0
INSERT
  8
17
  2
OCTAGONP
 10
7.6200
 20
7.6200
 30
0.0000
 41
1.5240
 42
1.5240
 43
1.0000
 50
90.0000
  0
INSERT
  8
17
  2
OCTAGONP
 10
7.6200
 20
7.6200
 30
0.0000
 41
1.5240
 42
1.5240
 43
1.0000
 50
90.0000
  0
INSERT
  8
17
  2
OCTAGONP
 10
5.0800
 20
7.6200
 30
0.0000
 41
1.5240
 42
1.5240
 43
1.0000
 50
90.0000
  0
INSERT
  8
17
  2
OCTAGONP
 10
5.0800
 20
7.6200
 30
0.0000
 41
1.5240
 42
1.5240
 43
1.0000
 50
90.0000
  0
INSERT
  8
17
  2
OCTAGONP
 10
7.6200
 20
10.1600
 30
0.0000
 41
1.5240
 42
1.5240
 43
1.0000
 50
90.0000
  0
INSERT
  8
17
  2
OCTAGONP
 10
7.6200
 20
10.1600
 30
0.0000
 41
1.5240
 42
1.5240
 43
1.0000
 50
90.0000
  0
INSERT
  8
17
  2
OCTAGONP
 10
5.0800
 20
10.1600
 30
0.0000
 41
1.5240
 42
1.5240
 43
1.0000
 50
90.0000
  0
INSERT
  8
17
  2
OCTAGONP
 10
5.0800
 20
10.1600
 30
0.0000
 41
1.5240
 42
1.5240
 43
1.0000
 50
90.0000
  0
POINT
  8
23
 10
10.1600
 20
6.3500
 30
0.0000
  0
POLYLINE
  8
21
 66
1
 10
0.0000
 20
0.0000
 30
0.0000
 40
0.1524
 41
0.1524
 70
0
  0
VERTEX
  8
21
 10
9.5250
 20
6.3500
 30
0.0000
  0
VERTEX
  8
21
 10
8.8900
 20
6.9850
 30
0.0000
  0
SEQEND
  8
0
  0
POLYLINE
  8
21
 66
1
 10
0.0000
 20
0.0000
 30
0.0000
 40
0.0762
 41
0.0762
 70
0
  0
VERTEX
  8
21
 10
8.9169
 20
7.0119
 30
0.0000
 42
1.0000
  0
VERTEX
  8
21
 10
8.8631
 20
6.9581
 30
0.0000
  0
SEQEND
  8
0
  0
POLYLINE
  8
21
 66
1
 10
0.0000
 20
0.0000
 30
0.0000
 40
0.0762
 41
0.0762
 70
0
  0
VERTEX
  8
21
 10
9.4981
 20
6.3231
 30
0.0000
 42
1.0000
  0
VERTEX
  8
21
 10
9.5519
 20
6.3769
 30
0.0000
  0
SEQEND
  8
0
  0
POLYLINE
  8
21
 66
1
 10
0.0000
 20
0.0000
 30
0.0000
 40
0.1524
 41
0.1524
 70
0
  0
VERTEX
  8
21
 10
8.8900
 20
6.9850
 30
0.0000
  0
VERTEX
  8
21
 10
8.8900
 20
8.2550
 30
0.0000
  0
SEQEND
  8
0
  0
POLYLINE
  8
21
 66
1
 10
0.0000
 20
0.0000
 30
0.0000
 40
0.0762
 41
0.0762
 70
0
  0
VERTEX
  8
21
 10
8.9281
 20
8.2550
 30
0.0000
 42
1.0000
  0
VERTEX
  8
21
 10
8.8519
 20
8.2550
 30
0.0000
  0
SEQEND
  8
0
  0
POLYLINE
  8
21
 66
1
 10
0.0000
 20
0.0000
 30
0.0000
 40
0.0762
 41
0.0762
 70
0
  0
VERTEX
  8
21
 10
8.8519
 20
6.9850
 30
0.0000
 42
1.0000
  0
VERTEX
  8
21
 10
8.9281
 20
6.9850
 30
0.0000
  0
SEQEND
  8
0
  0
POLYLINE
  8
21
 66
1
 10
0.0000
 20
0.0000
 30
0.0000
 40
0.1524
 41
0.1524
 70
0
  0
VERTEX
  8
21
 10
8.8900
 20
8.2550
 30
0.0000
  0
VERTEX
  8
21
 10
9.5250
 20
8.8900
 30
0.0000
  0
SEQEND
  8
0
  0
POLYLINE
  8
21
 66
1
 10
0.0000
 20
0.0000
 30
0.0000
 40
0.0762
 41
0.0762
 70
0
  0
VERTEX
  8
21
 10
9.5519
 20
8.8631
 30
0.0000
 42
1.0000
  0
VERTEX
  8
21
 10
9.4981
 20
8.9169
 30
0.0000
  0
SEQEND
  8
0
  0
POLYLINE
  8
21
 66
1
 10
0.0000
 20
0.0000
 30
0.0000
 40
0.0762
 41
0.0762
 70
0
  0
VERTEX
  8
21
 10
8.8631
 20
8.2819
 30
0.0000
 42
1.0000
  0
VERTEX
  8
21
 10
8.9169
 20
8.2281
 30
0.0000
  0
SEQEND
  8
0
  0
POLYLINE
  8
21
 66
1
 10
0.0000
 20
0.0000
 30
0.0000
 40
0.1524
 41
0.1524
 70
0
  0
VERTEX
  8
21
 10
9.5250
 20
8.8900
 30
0.0000
  0
VERTEX
  8
21
 10
10.7950
 20
8.8900
 30
0.0000
  0
SEQEND
  8
0
  0
POLYLINE
  8
21
 66
1
 10
0.0000
 20
0.0000
 30
0.0000
 40
0.0762
 41
0.0762
 70
0
  0
VERTEX
  8
21
 10
10.7950
 20
8.8519
 30
0.0000
 42
1.0000
  0
VERTEX
  8
21
 10
10.7950
 20
8.9281
 30
0.0000
  0
SEQEND
  8
0
  0
POLYLINE
  8
21
 66
1
 10
0.0000
 20
0.0000
 30
0.0000
 40
0.0762
 41
0.0762
 70
0
  0
VERTEX
  8
21
 10
9.5250
 20
8.9281
 30
0.0000
 42
1.0000
  0
VERTEX
  8
21
 10
9.5250
 20
8.8519
 30
0.0000
  0
SEQEND
  8
0
  0
POLYLINE
  8
21
 66
1
 10
0.0000
 20
0.0000
 30
0.0000
 40
0.1524
 41
0.1524
 70
0
  0
VERTEX
  8
21
 10
10.7950
 20
8.8900
 30
0.0000
  0
VERTEX
  8
21
 10
11.4300
 20
8.2550
 30
0.0000
  0
SEQEND
  8
0
  0
POLYLINE
  8
21
 66
1
 10
0.0000
 20
0.0000
 30
0.0000
 40
0.0762
 41
0.0762
 70
0
  0
VERTEX
  8
21
 10
11.4031
 20
8.2281
 30
0.0000
 42
1.0000
  0
VERTEX
  8
21
 10
11.4569
 20
8.2819
 30
0.0000
  0
SEQEND
  8
0
  0
POLYLINE
  8
21
 66
1
 10
0.0000
 20
0.0000
 30
0.0000
 40
0.0762
 41
0.0762
 70
0
  0
VERTEX
  8
21
 10
10.8219
 20
8.9169
 30
0.0000
 42
1.0000
  0
VERTEX
  8
21
 10
10.7681
 20
8.8631
 30
0.0000
  0
SEQEND
  8
0
  0
POLYLINE
  8
21
 66
1
 10
0.0000
 20
0.0000
 30
0.0000
 40
0.1524
 41
0.1524
 70
0
  0
VERTEX
  8
21
 10
11.4300
 20
8.2550
 30
0.0000
  0
VERTEX
  8
21
 10
11.4300
 20
6.9850
 30
0.0000
  0
SEQEND
  8
0
  0
POLYLINE
  8
21
 66
1
 10
0.0000
 20
0.0000
 30
0.0000
 40
0.0762
 41
0.0762
 70
0
  0
VERTEX
  8
21
 10
11.3919
 20
6.9850
 30
0.0000
 42
1.0000
  0
VERTEX
  8
21
 10
11.4681
 20
6.9850
 30
0.0000
  0
SEQEND
  8
0
  0
POLYLINE
  8
21
 66
1
 10
0.0000
 20
0.0000
 30
0.0000
 40
0.0762
 41
0.0762
 70
0
  0
VERTEX
  8
21
 10
11.4681
 20
8.2550
 30
0.0000
 42
1.0000
  0
VERTEX
  8
21
 10
11.3919
 20
8.2550
 30
0.0000
  0
SEQEND
  8
0
  0
POLYLINE
  8
21
 66
1
 10
0.0000
 20
0.0000
 30
0.0000
 40
0.1524
 41
0.1524
 70
0
  0
VERTEX
  8
21
 10
11.4300
 20
6.9850
 30
0.0000
  0
VERTEX
  8
21
 10
10.7950
 20
6.3500
 30
0.0000
  0
SEQEND
  8
0
  0
POLYLINE
  8
21
 66
1
 10
0.0000
 20
0.0000
 30
0.0000
 40
0.0762
 41
0.0762
 70
0
  0
VERTEX
  8
21
 10
10.7681
 20
6.3769
 30
0.0000
 42
1.0000
  0
VERTEX
  8
21
 10
10.8219
 20
6.3231
 30
0.0000
  0
SEQEND
  8
0
  0
POLYLINE
  8
21
 66
1
 10
0.0000
 20
0.0000
 30
0.0000
 40
0.0762
 41
0.0762
 70
0
  0
VERTEX
  8
21
 10
11.4569
 20
6.9581
 30
0.0000
 42
1.0000
  0
VERTEX
  8
21
 10
11.4031
 20
7.0119
 30
0.0000
  0
SEQEND
  8
0
  0
POLYLINE
  8
21
 66
1
 10
0.0000
 20
0.0000
 30
0.0000
 40
0.1524
 41
0.1524
 70
0
  0
VERTEX
  8
21
 10
8.8900
 20
1.9050
 30
0.0000
  0
VERTEX
  8
21
 10
8.8900
 20
3.1750
 30
0.0000
  0
SEQEND
  8
0
  0
POLYLINE
  8
21
 66
1
 10
0.0000
 20
0.0000
 30
0.0000
 40
0.0762
 41
0.0762
 70
0
  0
VERTEX
  8
21
 10
8.9281
 20
3.1750
 30
0.0000
 42
1.0000
  0
VERTEX
  8
21
 10
8.8519
 20
3.1750
 30
0.0000
  0
SEQEND
  8
0
  0
POLYLINE
  8
21
 66
1
 10
0.0000
 20
0.0000
 30
0.0000
 40
0.0762
 41
0.0762
 70
0
  0
VERTEX
  8
21
 10
8.8519
 20
1.9050
 30
0.0000
 42
1.0000
  0
VERTEX
  8
21
 10
8.9281
 20
1.9050
 30
0.0000
  0
SEQEND
  8
0
  0
POLYLINE
  8
21
 66
1
 10
0.0000
 20
0.0000
 30
0.0000
 40
0.1524
 41
0.1524
 70
0
  0
VERTEX
  8
21
 10
8.8900
 20
3.1750
 30
0.0000
  0
VERTEX
  8
21
 10
9.5250
 20
3.8100
 30
0.0000
  0
SEQEND
  8
0
  0
POLYLINE
  8
21
 66
1
 10
0.0000
 20
0.0000
 30
0.0000
 40
0.0762
 41
0.0762
 70
0
  0
VERTEX
  8
21
 10
9.5519
 20
3.7831
 30
0.0000
 42
1.0000
  0
VERTEX
  8
21
 10
9.4981
 20
3.8369
 30
0.0000
  0
SEQEND
  8
0
  0
POLYLINE
  8
21
 66
1
 10
0.0000
 20
0.0000
 30
0.0000
 40
0.0762
 41
0.0762
 70
0
  0
VERTEX
  8
21
 10
8.8631
 20
3.2019
 30
0.0000
 42
1.0000
  0
VERTEX
  8
21
 10
8.9169
 20
3.1481
 30
0.0000
  0
SEQEND
  8
0
  0
POLYLINE
  8
21
 66
1
 10
0.0000
 20
0.0000
 30
0.0000
 40
0.1524
 41
0.1524
 70
0
  0
VERTEX
  8
21
 10
9.5250
 20
3.8100
 30
0.0000
  0
VERTEX
  8
21
 10
10.7950
 20
3.8100
 30
0.0000
  0
SEQEND
  8
0
  0
POLYLINE
  8
21
 66
1
 10
0.0000
 20
0.0000
 30
0.0000
 40
0.0762
 41
0.0762
 70
0
  0
VERTEX
  8
21
 10
10.7950
 20
3.7719
 30
0.0000
 42
1.0000
  0
VERTEX
  8
21
 10
10.7950
 20
3.8481
 30
0.0000
  0
SEQEND
  8
0
  0
POLYLINE
  8
21
 66
1
 10
0.0000
 20
0.0000
 30
0.0000
 40
0.0762
 41
0.0762
 70
0
  0
VERTEX
  8
21
 10
9.5250
 20
3.8481
 30
0.0000
 42
1.0000
  0
VERTEX
  8
21
 10
9.5250
 20
3.7719
 30
0.0000
  0
SEQEND
  8
0
  0
POLYLINE
  8
21
 66
1
 10
0.0000
 20
0.0000
 30
0.0000
 40
0.1524
 41
0.1524
 70
0
  0
VERTEX
  8
21
 10
10.7950
 20
3.8100
 30
0.0000
  0
VERTEX
  8
21
 10
11.4300
 20
3.1750
 30
0.0000
  0
SEQEND
  8
0
  0
POLYLINE
  8
21
 66
1
 10
0.0000
 20
0.0000
 30
0.0000
 40
0.0762
 41
0.0762
 70
0
  0
VERTEX
  8
21
 10
11.4031
 20
3.1481
 30
0.0000
 42
1.0000
  0
VERTEX
  8
21
 10
11.4569
 20
3.2019
 30
0.0000
  0
SEQEND
  8
0
  0
POLYLINE
  8
21
 66
1
 10
0.0000
 20
0.0000
 30
0.0000
 40
0.0762
 41
0.0762
 70
0
  0
VERTEX
  8
21
 10
10.8219
 20
3.8369
 30
0.0000
 42
1.0000
  0
VERTEX
  8
21
 10
10.7681
 20
3.7831
 30
0.0000
  0
SEQEND
  8
0
  0
POLYLINE
  8
21
 66
1
 10
0.0000
 20
0.0000
 30
0.0000
 40
0.1524
 41
0.1524
 70
0
  0
VERTEX
  8
21
 10
9.5250
 20
3.8100
 30
0.0000
  0
VERTEX
  8
21
 10
8.8900
 20
4.4450
 30
0.0000
  0
SEQEND
  8
0
  0
POLYLINE
  8
21
 66
1
 10
0.0000
 20
0.0000
 30
0.0000
 40
0.0762
 41
0.0762
 70
0
  0
VERTEX
  8
21
 10
8.9169
 20
4.4719
 30
0.0000
 42
1.0000
  0
VERTEX
  8
21
 10
8.8631
 20
4.4181
 30
0.0000
  0
SEQEND
  8
0
  0
POLYLINE
  8
21
 66
1
 10
0.0000
 20
0.0000
 30
0.0000
 40
0.0762
 41
0.0762
 70
0
  0
VERTEX
  8
21
 10
9.4981
 20
3.7831
 30
0.0000
 42
1.0000
  0
VERTEX
  8
21
 10
9.5519
 20
3.8369
 30
0.0000
  0
SEQEND
  8
0
  0
POLYLINE
  8
21
 66
1
 10
0.0000
 20
0.0000
 30
0.0000
 40
0.1524
 41
0.1524
 70
0
  0
VERTEX
  8
21
 10
8.8900
 20
4.4450
 30
0.0000
  0
VERTEX
  8
21
 10
8.8900
 20
5.7150
 30
0.0000
  0
SEQEND
  8
0
  0
POLYLINE
  8
21
 66
1
 10
0.0000
 20
0.0000
 30
0.0000
 40
0.0762
 41
0.0762
 70
0
  0
VERTEX
  8
21
 10
8.9281
 20
5.7150
 30
0.0000
 42
1.0000
  0
VERTEX
  8
21
 10
8.8519
 20
5.7150
 30
0.0000
  0
SEQEND
  8
0
  0
POLYLINE
  8
21
 66
1
 10
0.0000
 20
0.0000
 30
0.0000
 40
0.0762
 41
0.0762
 70
0
  0
VERTEX
  8
21
 10
8.8519
 20
4.4450
 30
0.0000
 42
1.0000
  0
VERTEX
  8
21
 10
8.9281
 20
4.4450
 30
0.0000
  0
SEQEND
  8
0
  0
POLYLINE
  8
21
 66
1
 10
0.0000
 20
0.0000
 30
0.0000
 40
0.1524
 41
0.1524
 70
0
  0
VERTEX
  8
21
 10
8.8900
 20
5.7150
 30
0.0000
  0
VERTEX
  8
21
 10
9.5250
 20
6.3500
 30
0.0000
  0
SEQEND
  8
0
  0
POLYLINE
  8
21
 66
1
 10
0.0000
 20
0.0000
 30
0.0000
 40
0.0762
 41
0.0762
 70
0
  0
VERTEX
  8
21
 10
9.5519
 20
6.3231
 30
0.0000
 42
1.0000
  0
VERTEX
  8
21
 10
9.4981
 20
6.3769
 30
0.0000
  0
SEQEND
  8
0
  0
POLYLINE
  8
21
 66
1
 10
0.0000
 20
0.0000
 30
0.0000
 40
0.0762
 41
0.0762
 70
0
  0
VERTEX
  8
21
 10
8.8631
 20
5.7419
 30
0.0000
 42
1.0000
  0
VERTEX
  8
21
 10
8.9169
 20
5.6881
 30
0.0000
  0
SEQEND
  8
0
  0
POLYLINE
  8
21
 66
1
 10
0.0000
 20
0.0000
 30
0.0000
 40
0.1524
 41
0.1524
 70
0
  0
VERTEX
  8
21
 10
9.5250
 20
6.3500
 30
0.0000
  0
VERTEX
  8
21
 10
10.7950
 20
6.3500
 30
0.0000
  0
SEQEND
  8
0
  0
POLYLINE
  8
21
 66
1
 10
0.0000
 20
0.0000
 30
0.0000
 40
0.0762
 41
0.0762
 70
0
  0
VERTEX
  8
21
 10
10.7950
 20
6.3119
 30
0.0000
 42
1.0000
  0
VERTEX
  8
21
 10
10.7950
 20
6.3881
 30
0.0000
  0
SEQEND
  8
0
  0
POLYLINE
  8
21
 66
1
 10
0.0000
 20
0.0000
 30
0.0000
 40
0.0762
 41
0.0762
 70
0
  0
VERTEX
  8
21
 10
9.5250
 20
6.3881
 30
0.0000
 42
1.0000
  0
VERTEX
  8
21
 10
9.5250
 20
6.3119
 30
0.0000
  0
SEQEND
  8
0
  0
POLYLINE
  8
21
 66
1
 10
0.0000
 20
0.0000
 30
0.0000
 40
0.1524
 41
0.1524
 70
0
  0
VERTEX
  8
21
 10
10.7950
 20
6.3500
 30
0.0000
  0
VERTEX
  8
21
 10
11.4300
 20
5.7150
 30
0.0000
  0
SEQEND
  8
0
  0
POLYLINE
  8
21
 66
1
 10
0.0000
 20
0.0000
 30
0.0000
 40
0.0762
 41
0.0762
 70
0
  0
VERTEX
  8
21
 10
11.4031
 20
5.6881
 30
0.0000
 42
1.0000
  0
VERTEX
  8
21
 10
11.4569
 20
5.7419
 30
0.0000
  0
SEQEND
  8
0
  0
POLYLINE
  8
21
 66
1
 10
0.0000
 20
0.0000
 30
0.0000
 40
0.0762
 41
0.0762
 70
0
  0
VERTEX
  8
21
 10
10.8219
 20
6.3769
 30
0.0000
 42
1.0000
  0
VERTEX
  8
21
 10
10.7681
 20
6.3231
 30
0.0000
  0
SEQEND
  8
0
  0
POLYLINE
  8
21
 66
1
 10
0.0000
 20
0.0000
 30
0.0000
 40
0.1524
 41
0.1524
 70
0
  0
VERTEX
  8
21
 10
11.4300
 20
5.7150
 30
0.0000
  0
VERTEX
  8
21
 10
11.4300
 20
4.4450
 30
0.0000
  0
SEQEND
  8
0
  0
POLYLINE
  8
21
 66
1
 10
0.0000
 20
0.0000
 30
0.0000
 40
0.0762
 41
0.0762
 70
0
  0
VERTEX
  8
21
 10
11.3919
 20
4.4450
 30
0.0000
 42
1.0000
  0
VERTEX
  8
21
 10
11.4681
 20
4.4450
 30
0.0000
  0
SEQEND
  8
0
  0
POLYLINE
  8
21
 66
1
 10
0.0000
 20
0.0000
 30
0.0000
 40
0.0762
 41
0.0762
 70
0
  0
VERTEX
  8
21
 10
11.4681
 20
5.7150
 30
0.0000
 42
1.0000
  0
VERTEX
  8
21
 10
11.3919
 20
5.7150
 30
0.0000
  0
SEQEND
  8
0
  0
POLYLINE
  8
21
 66
1
 10
0.0000
 20
0.0000
 30
0.0000
 40
0.1524
 41
0.1524
 70
0
  0
VERTEX
  8
21
 10
11.4300
 20
4.4450
 30
0.0000
  0
VERTEX
  8
21
 10
10.7950
 20
3.8100
 30
0.0000
  0
SEQEND
  8
0
  0
POLYLINE
  8
21
 66
1
 10
0.0000
 20
0.0000
 30
0.0000
 40
0.0762
 41
0.0762
 70
0
  0
VERTEX
  8
21
 10
10.7681
 20
3.8369
 30
0.0000
 42
1.0000
  0
VERTEX
  8
21
 10
10.8219
 20
3.7831
 30
0.0000
  0
SEQEND
  8
0
  0
POLYLINE
  8
21
 66
1
 10
0.0000
 20
0.0000
 30
0.0000
 40
0.0762
 41
0.0762
 70
0
  0
VERTEX
  8
21
 10
11.4569
 20
4.4181
 30
0.0000
 42
1.0000
  0
VERTEX
  8
21
 10
11.4031
 20
4.4719
 30
0.0000
  0
SEQEND
  8
0
  0
POLYLINE
  8
21
 66
1
 10
0.0000
 20
0.0000
 30
0.0000
 40
0.1524
 41
0.1524
 70
0
  0
VERTEX
  8
21
 10
9.5250
 20
1.2700
 30
0.0000
  0
VERTEX
  8
21
 10
10.7950
 20
1.2700
 30
0.0000
  0
SEQEND
  8
0
  0
POLYLINE
  8
21
 66
1
 10
0.0000
 20
0.0000
 30
0.0000
 40
0.0762
 41
0.0762
 70
0
  0
VERTEX
  8
21
 10
10.7950
 20
1.2319
 30
0.0000
 42
1.0000
  0
VERTEX
  8
21
 10
10.7950
 20
1.3081
 30
0.0000
  0
SEQEND
  8
0
  0
POLYLINE
  8
21
 66
1
 10
0.0000
 20
0.0000
 30
0.0000
 40
0.0762
 41
0.0762
 70
0
  0
VERTEX
  8
21
 10
9.5250
 20
1.3081
 30
0.0000
 42
1.0000
  0
VERTEX
  8
21
 10
9.5250
 20
1.2319
 30
0.0000
  0
SEQEND
  8
0
  0
POLYLINE
  8
21
 66
1
 10
0.0000
 20
0.0000
 30
0.0000
 40
0.1524
 41
0.1524
 70
0
  0
VERTEX
  8
21
 10
8.8900
 20
1.9050
 30
0.0000
  0
VERTEX
  8
21
 10
9.5250
 20
1.2700
 30
0.0000
  0
SEQEND
  8
0
  0
POLYLINE
  8
21
 66
1
 10
0.0000
 20
0.0000
 30
0.0000
 40
0.0762
 41
0.0762
 70
0
  0
VERTEX
  8
21
 10
9.4981
 20
1.2431
 30
0.0000
 42
1.0000
  0
VERTEX
  8
21
 10
9.5519
 20
1.2969
 30
0.0000
  0
SEQEND
  8
0
  0
POLYLINE
  8
21
 66
1
 10
0.0000
 20
0.0000
 30
0.0000
 40
0.0762
 41
0.0762
 70
0
  0
VERTEX
  8
21
 10
8.9169
 20
1.9319
 30
0.0000
 42
1.0000
  0
VERTEX
  8
21
 10
8.8631
 20
1.8781
 30
0.0000
  0
SEQEND
  8
0
  0
POLYLINE
  8
21
 66
1
 10
0.0000
 20
0.0000
 30
0.0000
 40
0.1524
 41
0.1524
 70
0
  0
VERTEX
  8
21
 10
10.7950
 20
1.2700
 30
0.0000
  0
VERTEX
  8
21
 10
11.4300
 20
1.9050
 30
0.0000
  0
SEQEND
  8
0
  0
POLYLINE
  8
21
 66
1
 10
0.0000
 20
0.0000
 30
0.0000
 40
0.0762
 41
0.0762
 70
0
  0
VERTEX
  8
21
 10
11.4569
 20
1.8781
 30
0.0000
 42
1.0000
  0
VERTEX
  8
21
 10
11.4031
 20
1.9319
 30
0.0000
  0
SEQEND
  8
0
  0
POLYLINE
  8
21
 66
1
 10
0.0000
 20
0.0000
 30
0.0000
 40
0.0762
 41
0.0762
 70
0
  0
VERTEX
  8
21
 10
10.7681
 20
1.2969
 30
0.0000
 42
1.0000
  0
VERTEX
  8
21
 10
10.8219
 20
1.2431
 30
0.0000
  0
SEQEND
  8
0
  0
POLYLINE
  8
21
 66
1
 10
0.0000
 20
0.0000
 30
0.0000
 40
0.1524
 41
0.1524
 70
0
  0
VERTEX
  8
21
 10
11.4300
 20
3.1750
 30
0.0000
  0
VERTEX
  8
21
 10
11.4300
 20
1.9050
 30
0.0000
  0
SEQEND
  8
0
  0
POLYLINE
  8
21
 66
1
 10
0.0000
 20
0.0000
 30
0.0000
 40
0.0762
 41
0.0762
 70
0
  0
VERTEX
  8
21
 10
11.3919
 20
1.9050
 30
0.0000
 42
1.0000
  0
VERTEX
  8
21
 10
11.4681
 20
1.9050
 30
0.0000
  0
SEQEND
  8
0
  0
POLYLINE
  8
21
 66
1
 10
0.0000
 20
0.0000
 30
0.0000
 40
0.0762
 41
0.0762
 70
0
  0
VERTEX
  8
21
 10
11.4681
 20
3.1750
 30
0.0000
 42
1.0000
  0
VERTEX
  8
21
 10
11.3919
 20
3.1750
 30
0.0000
  0
SEQEND
  8
0
  0
POLYLINE
  8
21
 66
1
 10
0.0000
 20
0.0000
 30
0.0000
 40
0.1524
 41
0.1524
 70
0
  0
VERTEX
  8
21
 10
8.8900
 20
9.5250
 30
0.0000
  0
VERTEX
  8
21
 10
8.8900
 20
10.7950
 30
0.0000
  0
SEQEND
  8
0
  0
POLYLINE
  8
21
 66
1
 10
0.0000
 20
0.0000
 30
0.0000
 40
0.0762
 41
0.0762
 70
0
  0
VERTEX
  8
21
 10
8.9281
 20
10.7950
 30
0.0000
 42
1.0000
  0
VERTEX
  8
21
 10
8.8519
 20
10.7950
 30
0.0000
  0
SEQEND
  8
0
  0
POLYLINE
  8
21
 66
1
 10
0.0000
 20
0.0000
 30
0.0000
 40
0.0762
 41
0.0762
 70
0
  0
VERTEX
  8
21
 10
8.8519
 20
9.5250
 30
0.0000
 42
1.0000
  0
VERTEX
  8
21
 10
8.9281
 20
9.5250
 30
0.0000
  0
SEQEND
  8
0
  0
POLYLINE
  8
21
 66
1
 10
0.0000
 20
0.0000
 30
0.0000
 40
0.1524
 41
0.1524
 70
0
  0
VERTEX
  8
21
 10
8.8900
 20
10.7950
 30
0.0000
  0
VERTEX
  8
21
 10
9.5250
 20
11.4300
 30
0.0000
  0
SEQEND
  8
0
  0
POLYLINE
  8
21
 66
1
 10
0.0000
 20
0.0000
 30
0.0000
 40
0.0762
 41
0.0762
 70
0
  0
VERTEX
  8
21
 10
9.5519
 20
11.4031
 30
0.0000
 42
1.0000
  0
VERTEX
  8
21
 10
9.4981
 20
11.4569
 30
0.0000
  0
SEQEND
  8
0
  0
POLYLINE
  8
21
 66
1
 10
0.0000
 20
0.0000
 30
0.0000
 40
0.0762
 41
0.0762
 70
0
  0
VERTEX
  8
21
 10
8.8631
 20
10.8219
 30
0.0000
 42
1.0000
  0
VERTEX
  8
21
 10
8.9169
 20
10.7681
 30
0.0000
  0
SEQEND
  8
0
  0
POLYLINE
  8
21
 66
1
 10
0.0000
 20
0.0000
 30
0.0000
 40
0.1524
 41
0.1524
 70
0
  0
VERTEX
  8
21
 10
9.5250
 20
11.4300
 30
0.0000
  0
VERTEX
  8
21
 10
10.7950
 20
11.4300
 30
0.0000
  0
SEQEND
  8
0
  0
POLYLINE
  8
21
 66
1
 10
0.0000
 20
0.0000
 30
0.0000
 40
0.0762
 41
0.0762
 70
0
  0
VERTEX
  8
21
 10
10.7950
 20
11.3919
 30
0.0000
 42
1.0000
  0
VERTEX
  8
21
 10
10.7950
 20
11.4681
 30
0.0000
  0
SEQEND
  8
0
  0
POLYLINE
  8
21
 66
1
 10
0.0000
 20
0.0000
 30
0.0000
 40
0.0762
 41
0.0762
 70
0
  0
VERTEX
  8
21
 10
9.5250
 20
11.4681
 30
0.0000
 42
1.0000
  0
VERTEX
  8
21
 10
9.5250
 20
11.3919
 30
0.0000
  0
SEQEND
  8
0
  0
POLYLINE
  8
21
 66
1
 10
0.0000
 20
0.0000
 30
0.0000
 40
0.1524
 41
0.1524
 70
0
  0
VERTEX
  8
21
 10
10.7950
 20
11.4300
 30
0.0000
  0
VERTEX
  8
21
 10
11.4300
 20
10.7950
 30
0.0000
  0
SEQEND
  8
0
  0
POLYLINE
  8
21
 66
1
 10
0.0000
 20
0.0000
 30
0.0000
 40
0.0762
 41
0.0762
 70
0
  0
VERTEX
  8
21
 10
11.4031
 20
10.7681
 30
0.0000
 42
1.0000
  0
VERTEX
  8
21
 10
11.4569
 20
10.8219
 30
0.0000
  0
SEQEND
  8
0
  0
POLYLINE
  8
21
 66
1
 10
0.0000
 20
0.0000
 30
0.0000
 40
0.0762
 41
0.0762
 70
0
  0
VERTEX
  8
21
 10
10.8219
 20
11.4569
 30
0.0000
 42
1.0000
  0
VERTEX
  8
21
 10
10.7681
 20
11.4031
 30
0.0000
  0
SEQEND
  8
0
  0
POLYLINE
  8
21
 66
1
 10
0.0000
 20
0.0000
 30
0.0000
 40
0.1524
 41
0.1524
 70
0
  0
VERTEX
  8
21
 10
8.8900
 20
9.5250
 30
0.0000
  0
VERTEX
  8
21
 10
9.5250
 20
8.8900
 30
0.0000
  0
SEQEND
  8
0
  0
POLYLINE
  8
21
 66
1
 10
0.0000
 20
0.0000
 30
0.0000
 40
0.0762
 41
0.0762
 70
0
  0
VERTEX
  8
21
 10
9.4981
 20
8.8631
 30
0.0000
 42
1.0000
  0
VERTEX
  8
21
 10
9.5519
 20
8.9169
 30
0.0000
  0
SEQEND
  8
0
  0
POLYLINE
  8
21
 66
1
 10
0.0000
 20
0.0000
 30
0.0000
 40
0.0762
 41
0.0762
 70
0
  0
VERTEX
  8
21
 10
8.9169
 20
9.5519
 30
0.0000
 42
1.0000
  0
VERTEX
  8
21
 10
8.8631
 20
9.4981
 30
0.0000
  0
SEQEND
  8
0
  0
POLYLINE
  8
21
 66
1
 10
0.0000
 20
0.0000
 30
0.0000
 40
0.1524
 41
0.1524
 70
0
  0
VERTEX
  8
21
 10
10.7950
 20
8.8900
 30
0.0000
  0
VERTEX
  8
21
 10
11.4300
 20
9.5250
 30
0.0000
  0
SEQEND
  8
0
  0
POLYLINE
  8
21
 66
1
 10
0.0000
 20
0.0000
 30
0.0000
 40
0.0762
 41
0.0762
 70
0
  0
VERTEX
  8
21
 10
11.4569
 20
9.4981
 30
0.0000
 42
1.0000
  0
VERTEX
  8
21
 10
11.4031
 20
9.5519
 30
0.0000
  0
SEQEND
  8
0
  0
POLYLINE
  8
21
 66
1
 10
0.0000
 20
0.0000
 30
0.0000
 40
0.0762
 41
0.0762
 70
0
  0
VERTEX
  8
21
 10
10.7681
 20
8.9169
 30
0.0000
 42
1.0000
  0
VERTEX
  8
21
 10
10.8219
 20
8.8631
 30
0.0000
  0
SEQEND
  8
0
  0
POLYLINE
  8
21
 66
1
 10
0.0000
 20
0.0000
 30
0.0000
 40
0.1524
 41
0.1524
 70
0
  0
VERTEX
  8
21
 10
11.4300
 20
10.7950
 30
0.0000
  0
VERTEX
  8
21
 10
11.4300
 20
9.5250
 30
0.0000
  0
SEQEND
  8
0
  0
POLYLINE
  8
21
 66
1
 10
0.0000
 20
0.0000
 30
0.0000
 40
0.0762
 41
0.0762
 70
0
  0
VERTEX
  8
21
 10
11.3919
 20
9.5250
 30
0.0000
 42
1.0000
  0
VERTEX
  8
21
 10
11.4681
 20
9.5250
 30
0.0000
  0
SEQEND
  8
0
  0
POLYLINE
  8
21
 66
1
 10
0.0000
 20
0.0000
 30
0.0000
 40
0.0762
 41
0.0762
 70
0
  0
VERTEX
  8
21
 10
11.4681
 20
10.7950
 30
0.0000
 42
1.0000
  0
VERTEX
  8
21
 10
11.3919
 20
10.7950
 30
0.0000
  0
SEQEND
  8
0
  0
POLYLINE
  8
25
 66
1
 10
0.0000
 20
0.0000
 30
0.0000
 40
0.1270
 41
0.1270
 70
0
  0
VERTEX
  8
25
 10
8.0770
 20
1.2573
 30
0.0000
  0
VERTEX
  8
25
 10
8.2677
 20
1.4480
 30
0.0000
  0
SEQEND
  8
0
  0
POLYLINE
  8
25
 66
1
 10
0.0000
 20
0.0000
 30
0.0000
 40
0.0635
 41
0.0635
 70
0
  0
VERTEX
  8
25
 10
8.2902
 20
1.4255
 30
0.0000
 42
1.0000
  0
VERTEX
  8
25
 10
8.2452
 20
1.4704
 30
0.0000
  0
SEQEND
  8
0
  0
POLYLINE
  8
25
 66
1
 10
0.0000
 20
0.0000
 30
0.0000
 40
0.0635
 41
0.0635
 70
0
  0
VERTEX
  8
25
 10
8.0546
 20
1.2798
 30
0.0000
 42
1.0000
  0
VERTEX
  8
25
 10
8.0995
 20
1.2348
 30
0.0000
  0
SEQEND
  8
0
  0
POLYLINE
  8
25
 66
1
 10
0.0000
 20
0.0000
 30
0.0000
 40
0.1270
 41
0.1270
 70
0
  0
VERTEX
  8
25
 10
8.2677
 20
1.4480
 30
0.0000
  0
VERTEX
  8
25
 10
8.2677
 20
1.6386
 30
0.0000
  0
SEQEND
  8
0
  0
POLYLINE
  8
25
 66
1
 10
0.0000
 20
0.0000
 30
0.0000
 40
0.0635
 41
0.0635
 70
0
  0
VERTEX
  8
25
 10
8.2995
 20
1.6386
 30
0.0000
 42
1.0000
  0
VERTEX
  8
25
 10
8.2359
 20
1.6386
 30
0.0000
  0
SEQEND
  8
0
  0
POLYLINE
  8
25
 66
1
 10
0.0000
 20
0.0000
 30
0.0000
 40
0.0635
 41
0.0635
 70
0
  0
VERTEX
  8
25
 10
8.2359
 20
1.4480
 30
0.0000
 42
1.0000
  0
VERTEX
  8
25
 10
8.2995
 20
1.4480
 30
0.0000
  0
SEQEND
  8
0
  0
POLYLINE
  8
25
 66
1
 10
0.0000
 20
0.0000
 30
0.0000
 40
0.1270
 41
0.1270
 70
0
  0
VERTEX
  8
25
 10
8.2677
 20
1.6386
 30
0.0000
  0
VERTEX
  8
25
 10
8.0770
 20
1.8293
 30
0.0000
  0
SEQEND
  8
0
  0
POLYLINE
  8
25
 66
1
 10
0.0000
 20
0.0000
 30
0.0000
 40
0.0635
 41
0.0635
 70
0
  0
VERTEX
  8
25
 10
8.0995
 20
1.8517
 30
0.0000
 42
1.0000
  0
VERTEX
  8
25
 10
8.0546
 20
1.8068
 30
0.0000
  0
SEQEND
  8
0
  0
POLYLINE
  8
25
 66
1
 10
0.0000
 20
0.0000
 30
0.0000
 40
0.0635
 41
0.0635
 70
0
  0
VERTEX
  8
25
 10
8.2452
 20
1.6162
 30
0.0000
 42
1.0000
  0
VERTEX
  8
25
 10
8.2902
 20
1.6611
 30
0.0000
  0
SEQEND
  8
0
  0
POLYLINE
  8
25
 66
1
 10
0.0000
 20
0.0000
 30
0.0000
 40
0.1270
 41
0.1270
 70
0
  0
VERTEX
  8
25
 10
8.0770
 20
1.8293
 30
0.0000
  0
VERTEX
  8
25
 10
7.1237
 20
1.8293
 30
0.0000
  0
SEQEND
  8
0
  0
POLYLINE
  8
25
 66
1
 10
0.0000
 20
0.0000
 30
0.0000
 40
0.0635
 41
0.0635
 70
0
  0
VERTEX
  8
25
 10
7.1237
 20
1.8610
 30
0.0000
 42
1.0000
  0
VERTEX
  8
25
 10
7.1237
 20
1.7975
 30
0.0000
  0
SEQEND
  8
0
  0
POLYLINE
  8
25
 66
1
 10
0.0000
 20
0.0000
 30
0.0000
 40
0.0635
 41
0.0635
 70
0
  0
VERTEX
  8
25
 10
8.0770
 20
1.7975
 30
0.0000
 42
1.0000
  0
VERTEX
  8
25
 10
8.0770
 20
1.8610
 30
0.0000
  0
SEQEND
  8
0
  0
POLYLINE
  8
25
 66
1
 10
0.0000
 20
0.0000
 30
0.0000
 40
0.1270
 41
0.1270
 70
0
  0
VERTEX
  8
25
 10
7.1237
 20
1.6386
 30
0.0000
  0
VERTEX
  8
25
 10
7.1237
 20
2.0200
 30
0.0000
  0
SEQEND
  8
0
  0
POLYLINE
  8
25
 66
1
 10
0.0000
 20
0.0000
 30
0.0000
 40
0.0635
 41
0.0635
 70
0
  0
VERTEX
  8
25
 10
7.1555
 20
2.0200
 30
0.0000
 42
1.0000
  0
VERTEX
  8
25
 10
7.0920
 20
2.0200
 30
0.0000
  0
SEQEND
  8
0
  0
POLYLINE
  8
25
 66
1
 10
0.0000
 20
0.0000
 30
0.0000
 40
0.0635
 41
0.0635
 70
0
  0
VERTEX
  8
25
 10
7.0920
 20
1.6386
 30
0.0000
 42
1.0000
  0
VERTEX
  8
25
 10
7.1555
 20
1.6386
 30
0.0000
  0
SEQEND
  8
0
  0
POLYLINE
  8
25
 66
1
 10
0.0000
 20
0.0000
 30
0.0000
 40
0.1270
 41
0.1270
 70
0
  0
VERTEX
  8
25
 10
8.2677
 20
2.4267
 30
0.0000
  0
VERTEX
  8
25
 10
7.1237
 20
2.4267
 30
0.0000
  0
SEQEND
  8
0
  0
POLYLINE
  8
25
 66
1
 10
0.0000
 20
0.0000
 30
0.0000
 40
0.0635
 41
0.0635
 70
0
  0
VERTEX
  8
25
 10
7.1237
 20
2.4584
 30
0.0000
 42
1.0000
  0
VERTEX
  8
25
 10
7.1237
 20
2.3949
 30
0.0000
  0
SEQEND
  8
0
  0
POLYLINE
  8
25
 66
1
 10
0.0000
 20
0.0000
 30
0.0000
 40
0.0635
 41
0.0635
 70
0
  0
VERTEX
  8
25
 10
8.2677
 20
2.3949
 30
0.0000
 42
1.0000
  0
VERTEX
  8
25
 10
8.2677
 20
2.4584
 30
0.0000
  0
SEQEND
  8
0
  0
POLYLINE
  8
25
 66
1
 10
0.0000
 20
0.0000
 30
0.0000
 40
0.1270
 41
0.1270
 70
0
  0
VERTEX
  8
25
 10
7.1237
 20
2.4267
 30
0.0000
  0
VERTEX
  8
25
 10
7.1237
 20
2.9987
 30
0.0000
  0
SEQEND
  8
0
  0
POLYLINE
  8
25
 66
1
 10
0.0000
 20
0.0000
 30
0.0000
 40
0.0635
 41
0.0635
 70
0
  0
VERTEX
  8
25
 10
7.1555
 20
2.9987
 30
0.0000
 42
1.0000
  0
VERTEX
  8
25
 10
7.0920
 20
2.9987
 30
0.0000
  0
SEQEND
  8
0
  0
POLYLINE
  8
25
 66
1
 10
0.0000
 20
0.0000
 30
0.0000
 40
0.0635
 41
0.0635
 70
0
  0
VERTEX
  8
25
 10
7.0920
 20
2.4267
 30
0.0000
 42
1.0000
  0
VERTEX
  8
25
 10
7.1555
 20
2.4267
 30
0.0000
  0
SEQEND
  8
0
  0
POLYLINE
  8
25
 66
1
 10
0.0000
 20
0.0000
 30
0.0000
 40
0.1270
 41
0.1270
 70
0
  0
VERTEX
  8
25
 10
7.1237
 20
2.9987
 30
0.0000
  0
VERTEX
  8
25
 10
7.3144
 20
3.1893
 30
0.0000
  0
SEQEND
  8
0
  0
POLYLINE
  8
25
 66
1
 10
0.0000
 20
0.0000
 30
0.0000
 40
0.0635
 41
0.0635
 70
0
  0
VERTEX
  8
25
 10
7.3368
 20
3.1669
 30
0.0000
 42
1.0000
  0
VERTEX
  8
25
 10
7.2919
 20
3.2118
 30
0.0000
  0
SEQEND
  8
0
  0
POLYLINE
  8
25
 66
1
 10
0.0000
 20
0.0000
 30
0.0000
 40
0.0635
 41
0.0635
 70
0
  0
VERTEX
  8
25
 10
7.1013
 20
3.0211
 30
0.0000
 42
1.0000
  0
VERTEX
  8
25
 10
7.1462
 20
2.9762
 30
0.0000
  0
SEQEND
  8
0
  0
POLYLINE
  8
25
 66
1
 10
0.0000
 20
0.0000
 30
0.0000
 40
0.1270
 41
0.1270
 70
0
  0
VERTEX
  8
25
 10
7.3144
 20
3.1893
 30
0.0000
  0
VERTEX
  8
25
 10
7.6957
 20
3.1893
 30
0.0000
  0
SEQEND
  8
0
  0
POLYLINE
  8
25
 66
1
 10
0.0000
 20
0.0000
 30
0.0000
 40
0.0635
 41
0.0635
 70
0
  0
VERTEX
  8
25
 10
7.6957
 20
3.1576
 30
0.0000
 42
1.0000
  0
VERTEX
  8
25
 10
7.6957
 20
3.2211
 30
0.0000
  0
SEQEND
  8
0
  0
POLYLINE
  8
25
 66
1
 10
0.0000
 20
0.0000
 30
0.0000
 40
0.0635
 41
0.0635
 70
0
  0
VERTEX
  8
25
 10
7.3144
 20
3.2211
 30
0.0000
 42
1.0000
  0
VERTEX
  8
25
 10
7.3144
 20
3.1576
 30
0.0000
  0
SEQEND
  8
0
  0
POLYLINE
  8
25
 66
1
 10
0.0000
 20
0.0000
 30
0.0000
 40
0.1270
 41
0.1270
 70
0
  0
VERTEX
  8
25
 10
7.6957
 20
3.1893
 30
0.0000
  0
VERTEX
  8
25
 10
7.8864
 20
2.9987
 30
0.0000
  0
SEQEND
  8
0
  0
POLYLINE
  8
25
 66
1
 10
0.0000
 20
0.0000
 30
0.0000
 40
0.0635
 41
0.0635
 70
0
  0
VERTEX
  8
25
 10
7.8639
 20
2.9762
 30
0.0000
 42
1.0000
  0
VERTEX
  8
25
 10
7.9088
 20
3.0211
 30
0.0000
  0
SEQEND
  8
0
  0
POLYLINE
  8
25
 66
1
 10
0.0000
 20
0.0000
 30
0.0000
 40
0.0635
 41
0.0635
 70
0
  0
VERTEX
  8
25
 10
7.7182
 20
3.2118
 30
0.0000
 42
1.0000
  0
VERTEX
  8
25
 10
7.6733
 20
3.1669
 30
0.0000
  0
SEQEND
  8
0
  0
POLYLINE
  8
25
 66
1
 10
0.0000
 20
0.0000
 30
0.0000
 40
0.1270
 41
0.1270
 70
0
  0
VERTEX
  8
25
 10
7.8864
 20
2.9987
 30
0.0000
  0
VERTEX
  8
25
 10
7.8864
 20
2.4267
 30
0.0000
  0
SEQEND
  8
0
  0
POLYLINE
  8
25
 66
1
 10
0.0000
 20
0.0000
 30
0.0000
 40
0.0635
 41
0.0635
 70
0
  0
VERTEX
  8
25
 10
7.8546
 20
2.4267
 30
0.0000
 42
1.0000
  0
VERTEX
  8
25
 10
7.9181
 20
2.4267
 30
0.0000
  0
SEQEND
  8
0
  0
POLYLINE
  8
25
 66
1
 10
0.0000
 20
0.0000
 30
0.0000
 40
0.0635
 41
0.0635
 70
0
  0
VERTEX
  8
25
 10
7.9181
 20
2.9987
 30
0.0000
 42
1.0000
  0
VERTEX
  8
25
 10
7.8546
 20
2.9987
 30
0.0000
  0
SEQEND
  8
0
  0
POLYLINE
  8
25
 66
1
 10
0.0000
 20
0.0000
 30
0.0000
 40
0.1270
 41
0.1270
 70
0
  0
VERTEX
  8
25
 10
8.2677
 20
4.3587
 30
0.0000
  0
VERTEX
  8
25
 10
8.2677
 20
3.5961
 30
0.0000
  0
SEQEND
  8
0
  0
POLYLINE
  8
25
 66
1
 10
0.0000
 20
0.0000
 30
0.0000
 40
0.0635
 41
0.0635
 70
0
  0
VERTEX
  8
25
 10
8.2359
 20
3.5961
 30
0.0000
 42
1.0000
  0
VERTEX
  8
25
 10
8.2995
 20
3.5961
 30
0.0000
  0
SEQEND
  8
0
  0
POLYLINE
  8
25
 66
1
 10
0.0000
 20
0.0000
 30
0.0000
 40
0.0635
 41
0.0635
 70
0
  0
VERTEX
  8
25
 10
8.2995
 20
4.3587
 30
0.0000
 42
1.0000
  0
VERTEX
  8
25
 10
8.2359
 20
4.3587
 30
0.0000
  0
SEQEND
  8
0
  0
POLYLINE
  8
25
 66
1
 10
0.0000
 20
0.0000
 30
0.0000
 40
0.1270
 41
0.1270
 70
0
  0
VERTEX
  8
25
 10
8.2677
 20
3.5961
 30
0.0000
  0
VERTEX
  8
25
 10
7.5051
 20
4.3587
 30
0.0000
  0
SEQEND
  8
0
  0
POLYLINE
  8
25
 66
1
 10
0.0000
 20
0.0000
 30
0.0000
 40
0.0635
 41
0.0635
 70
0
  0
VERTEX
  8
25
 10
7.5275
 20
4.3812
 30
0.0000
 42
1.0000
  0
VERTEX
  8
25
 10
7.4826
 20
4.3363
 30
0.0000
  0
SEQEND
  8
0
  0
POLYLINE
  8
25
 66
1
 10
0.0000
 20
0.0000
 30
0.0000
 40
0.0635
 41
0.0635
 70
0
  0
VERTEX
  8
25
 10
8.2452
 20
3.5736
 30
0.0000
 42
1.0000
  0
VERTEX
  8
25
 10
8.2902
 20
3.6185
 30
0.0000
  0
SEQEND
  8
0
  0
POLYLINE
  8
25
 66
1
 10
0.0000
 20
0.0000
 30
0.0000
 40
0.1270
 41
0.1270
 70
0
  0
VERTEX
  8
25
 10
7.5051
 20
4.3587
 30
0.0000
  0
VERTEX
  8
25
 10
7.3144
 20
4.3587
 30
0.0000
  0
SEQEND
  8
0
  0
POLYLINE
  8
25
 66
1
 10
0.0000
 20
0.0000
 30
0.0000
 40
0.0635
 41
0.0635
 70
0
  0
VERTEX
  8
25
 10
7.3144
 20
4.3905
 30
0.0000
 42
1.0000
  0
VERTEX
  8
25
 10
7.3144
 20
4.3270
 30
0.0000
  0
SEQEND
  8
0
  0
POLYLINE
  8
25
 66
1
 10
0.0000
 20
0.0000
 30
0.0000
 40
0.0635
 41
0.0635
 70
0
  0
VERTEX
  8
25
 10
7.5051
 20
4.3270
 30
0.0000
 42
1.0000
  0
VERTEX
  8
25
 10
7.5051
 20
4.3905
 30
0.0000
  0
SEQEND
  8
0
  0
POLYLINE
  8
25
 66
1
 10
0.0000
 20
0.0000
 30
0.0000
 40
0.1270
 41
0.1270
 70
0
  0
VERTEX
  8
25
 10
7.3144
 20
4.3587
 30
0.0000
  0
VERTEX
  8
25
 10
7.1237
 20
4.1681
 30
0.0000
  0
SEQEND
  8
0
  0
POLYLINE
  8
25
 66
1
 10
0.0000
 20
0.0000
 30
0.0000
 40
0.0635
 41
0.0635
 70
0
  0
VERTEX
  8
25
 10
7.1013
 20
4.1905
 30
0.0000
 42
1.0000
  0
VERTEX
  8
25
 10
7.1462
 20
4.1456
 30
0.0000
  0
SEQEND
  8
0
  0
POLYLINE
  8
25
 66
1
 10
0.0000
 20
0.0000
 30
0.0000
 40
0.0635
 41
0.0635
 70
0
  0
VERTEX
  8
25
 10
7.3368
 20
4.3363
 30
0.0000
 42
1.0000
  0
VERTEX
  8
25
 10
7.2919
 20
4.3812
 30
0.0000
  0
SEQEND
  8
0
  0
POLYLINE
  8
25
 66
1
 10
0.0000
 20
0.0000
 30
0.0000
 40
0.1270
 41
0.1270
 70
0
  0
VERTEX
  8
25
 10
7.1237
 20
4.1681
 30
0.0000
  0
VERTEX
  8
25
 10
7.1237
 20
3.7868
 30
0.0000
  0
SEQEND
  8
0
  0
POLYLINE
  8
25
 66
1
 10
0.0000
 20
0.0000
 30
0.0000
 40
0.0635
 41
0.0635
 70
0
  0
VERTEX
  8
25
 10
7.0920
 20
3.7868
 30
0.0000
 42
1.0000
  0
VERTEX
  8
25
 10
7.1555
 20
3.7868
 30
0.0000
  0
SEQEND
  8
0
  0
POLYLINE
  8
25
 66
1
 10
0.0000
 20
0.0000
 30
0.0000
 40
0.0635
 41
0.0635
 70
0
  0
VERTEX
  8
25
 10
7.1555
 20
4.1681
 30
0.0000
 42
1.0000
  0
VERTEX
  8
25
 10
7.0920
 20
4.1681
 30
0.0000
  0
SEQEND
  8
0
  0
POLYLINE
  8
25
 66
1
 10
0.0000
 20
0.0000
 30
0.0000
 40
0.1270
 41
0.1270
 70
0
  0
VERTEX
  8
25
 10
7.1237
 20
3.7868
 30
0.0000
  0
VERTEX
  8
25
 10
7.3144
 20
3.5961
 30
0.0000
  0
SEQEND
  8
0
  0
POLYLINE
  8
25
 66
1
 10
0.0000
 20
0.0000
 30
0.0000
 40
0.0635
 41
0.0635
 70
0
  0
VERTEX
  8
25
 10
7.2919
 20
3.5736
 30
0.0000
 42
1.0000
  0
VERTEX
  8
25
 10
7.3368
 20
3.6185
 30
0.0000
  0
SEQEND
  8
0
  0
POLYLINE
  8
25
 66
1
 10
0.0000
 20
0.0000
 30
0.0000
 40
0.0635
 41
0.0635
 70
0
  0
VERTEX
  8
25
 10
7.1462
 20
3.8092
 30
0.0000
 42
1.0000
  0
VERTEX
  8
25
 10
7.1013
 20
3.7643
 30
0.0000
  0
SEQEND
  8
0
  0
INSERT
  8
51
  2
RECT
 10
10.1600
 20
7.6200
 30
0.0000
 41
0.5080
 42
0.5080
 43
1.0000
 50
90.0000
  0
INSERT
  8
51
  2
RECT
 10
10.1600
 20
5.0800
 30
0.0000
 41
0.5080
 42
0.5080
 43
1.0000
 50
90.0000
  0
INSERT
  8
51
  2
RECT
 10
10.1600
 20
2.5400
 30
0.0000
 41
0.5080
 42
0.5080
 43
1.0000
 50
90.0000
  0
INSERT
  8
51
  2
RECT
 10
10.1600
 20
10.1600
 30
0.0000
 41
0.5080
 42
0.5080
 43
1.0000
 50
90.0000
  0
INSERT
  8
17
  2
LONGP100
 10
10.1600
 20
2.5400
 30
0.0000
 41
1.5240
 42
1.5240
 43
1.0000
 50
180.0000
  0
INSERT
  8
17
  2
LONGP100
 10
10.1600
 20
2.5400
 30
0.0000
 41
1.5240
 42
1.5240
 43
1.0000
 50
180.0000
  0
INSERT
  8
17
  2
LONGP100
 10
10.1600
 20
5.0800
 30
0.0000
 41
1.5240
 42
1.5240
 43
1.0000
 50
180.0000
  0
INSERT
  8
17
  2
LONGP100
 10
10.1600
 20
5.0800
 30
0.0000
 41
1.5240
 42
1.5240
 43
1.0000
 50
180.0000
  0
INSERT
  8
17
  2
LONGP100
 10
10.1600
 20
7.6200
 30
0.0000
 41
1.5240
 42
1.5240
 43
1.0000
 50
180.0000
  0
INSERT
  8
17
  2
LONGP100
 10
10.1600
 20
7.6200
 30
0.0000
 41
1.5240
 42
1.5240
 43
1.0000
 50
180.0000
  0
INSERT
  8
17
  2
LONGP100
 10
10.1600
 20
10.1600
 30
0.0000
 41
1.5240
 42
1.5240
 43
1.0000
 50
180.0000
  0
INSERT
  8
17
  2
LONGP100
 10
10.1600
 20
10.1600
 30
0.0000
 41
1.5240
 42
1.5240
 43
1.0000
 50
180.0000
  0
POINT
  8
23
 10
2.5400
 20
6.3500
 30
0.0000
  0
POLYLINE
  8
21
 66
1
 10
0.0000
 20
0.0000
 30
0.0000
 40
0.1524
 41
0.1524
 70
0
  0
VERTEX
  8
21
 10
1.9050
 20
6.3500
 30
0.0000
  0
VERTEX
  8
21
 10
1.2700
 20
6.9850
 30
0.0000
  0
SEQEND
  8
0
  0
POLYLINE
  8
21
 66
1
 10
0.0000
 20
0.0000
 30
0.0000
 40
0.0762
 41
0.0762
 70
0
  0
VERTEX
  8
21
 10
1.2969
 20
7.0119
 30
0.0000
 42
1.0000
  0
VERTEX
  8
21
 10
1.2431
 20
6.9581
 30
0.0000
  0
SEQEND
  8
0
  0
POLYLINE
  8
21
 66
1
 10
0.0000
 20
0.0000
 30
0.0000
 40
0.0762
 41
0.0762
 70
0
  0
VERTEX
  8
21
 10
1.8781
 20
6.3231
 30
0.0000
 42
1.0000
  0
VERTEX
  8
21
 10
1.9319
 20
6.3769
 30
0.0000
  0
SEQEND
  8
0
  0
POLYLINE
  8
21
 66
1
 10
0.0000
 20
0.0000
 30
0.0000
 40
0.1524
 41
0.1524
 70
0
  0
VERTEX
  8
21
 10
1.2700
 20
6.9850
 30
0.0000
  0
VERTEX
  8
21
 10
1.2700
 20
8.2550
 30
0.0000
  0
SEQEND
  8
0
  0
POLYLINE
  8
21
 66
1
 10
0.0000
 20
0.0000
 30
0.0000
 40
0.0762
 41
0.0762
 70
0
  0
VERTEX
  8
21
 10
1.3081
 20
8.2550
 30
0.0000
 42
1.0000
  0
VERTEX
  8
21
 10
1.2319
 20
8.2550
 30
0.0000
  0
SEQEND
  8
0
  0
POLYLINE
  8
21
 66
1
 10
0.0000
 20
0.0000
 30
0.0000
 40
0.0762
 41
0.0762
 70
0
  0
VERTEX
  8
21
 10
1.2319
 20
6.9850
 30
0.0000
 42
1.0000
  0
VERTEX
  8
21
 10
1.3081
 20
6.9850
 30
0.0000
  0
SEQEND
  8
0
  0
POLYLINE
  8
21
 66
1
 10
0.0000
 20
0.0000
 30
0.0000
 40
0.1524
 41
0.1524
 70
0
  0
VERTEX
  8
21
 10
1.2700
 20
8.2550
 30
0.0000
  0
VERTEX
  8
21
 10
1.9050
 20
8.8900
 30
0.0000
  0
SEQEND
  8
0
  0
POLYLINE
  8
21
 66
1
 10
0.0000
 20
0.0000
 30
0.0000
 40
0.0762
 41
0.0762
 70
0
  0
VERTEX
  8
21
 10
1.9319
 20
8.8631
 30
0.0000
 42
1.0000
  0
VERTEX
  8
21
 10
1.8781
 20
8.9169
 30
0.0000
  0
SEQEND
  8
0
  0
POLYLINE
  8
21
 66
1
 10
0.0000
 20
0.0000
 30
0.0000
 40
0.0762
 41
0.0762
 70
0
  0
VERTEX
  8
21
 10
1.2431
 20
8.2819
 30
0.0000
 42
1.0000
  0
VERTEX
  8
21
 10
1.2969
 20
8.2281
 30
0.0000
  0
SEQEND
  8
0
  0
POLYLINE
  8
21
 66
1
 10
0.0000
 20
0.0000
 30
0.0000
 40
0.1524
 41
0.1524
 70
0
  0
VERTEX
  8
21
 10
1.9050
 20
8.8900
 30
0.0000
  0
VERTEX
  8
21
 10
3.1750
 20
8.8900
 30
0.0000
  0
SEQEND
  8
0
  0
POLYLINE
  8
21
 66
1
 10
0.0000
 20
0.0000
 30
0.0000
 40
0.0762
 41
0.0762
 70
0
  0
VERTEX
  8
21
 10
3.1750
 20
8.8519
 30
0.0000
 42
1.0000
  0
VERTEX
  8
21
 10
3.1750
 20
8.9281
 30
0.0000
  0
SEQEND
  8
0
  0
POLYLINE
  8
21
 66
1
 10
0.0000
 20
0.0000
 30
0.0000
 40
0.0762
 41
0.0762
 70
0
  0
VERTEX
  8
21
 10
1.9050
 20
8.9281
 30
0.0000
 42
1.0000
  0
VERTEX
  8
21
 10
1.9050
 20
8.8519
 30
0.0000
  0
SEQEND
  8
0
  0
POLYLINE
  8
21
 66
1
 10
0.0000
 20
0.0000
 30
0.0000
 40
0.1524
 41
0.1524
 70
0
  0
VERTEX
  8
21
 10
3.1750
 20
8.8900
 30
0.0000
  0
VERTEX
  8
21
 10
3.8100
 20
8.2550
 30
0.0000
  0
SEQEND
  8
0
  0
POLYLINE
  8
21
 66
1
 10
0.0000
 20
0.0000
 30
0.0000
 40
0.0762
 41
0.0762
 70
0
  0
VERTEX
  8
21
 10
3.7831
 20
8.2281
 30
0.0000
 42
1.0000
  0
VERTEX
  8
21
 10
3.8369
 20
8.2819
 30
0.0000
  0
SEQEND
  8
0
  0
POLYLINE
  8
21
 66
1
 10
0.0000
 20
0.0000
 30
0.0000
 40
0.0762
 41
0.0762
 70
0
  0
VERTEX
  8
21
 10
3.2019
 20
8.9169
 30
0.0000
 42
1.0000
  0
VERTEX
  8
21
 10
3.1481
 20
8.8631
 30
0.0000
  0
SEQEND
  8
0
  0
POLYLINE
  8
21
 66
1
 10
0.0000
 20
0.0000
 30
0.0000
 40
0.1524
 41
0.1524
 70
0
  0
VERTEX
  8
21
 10
3.8100
 20
8.2550
 30
0.0000
  0
VERTEX
  8
21
 10
3.8100
 20
6.9850
 30
0.0000
  0
SEQEND
  8
0
  0
POLYLINE
  8
21
 66
1
 10
0.0000
 20
0.0000
 30
0.0000
 40
0.0762
 41
0.0762
 70
0
  0
VERTEX
  8
21
 10
3.7719
 20
6.9850
 30
0.0000
 42
1.0000
  0
VERTEX
  8
21
 10
3.8481
 20
6.9850
 30
0.0000
  0
SEQEND
  8
0
  0
POLYLINE
  8
21
 66
1
 10
0.0000
 20
0.0000
 30
0.0000
 40
0.0762
 41
0.0762
 70
0
  0
VERTEX
  8
21
 10
3.8481
 20
8.2550
 30
0.0000
 42
1.0000
  0
VERTEX
  8
21
 10
3.7719
 20
8.2550
 30
0.0000
  0
SEQEND
  8
0
  0
POLYLINE
  8
21
 66
1
 10
0.0000
 20
0.0000
 30
0.0000
 40
0.1524
 41
0.1524
 70
0
  0
VERTEX
  8
21
 10
3.8100
 20
6.9850
 30
0.0000
  0
VERTEX
  8
21
 10
3.1750
 20
6.3500
 30
0.0000
  0
SEQEND
  8
0
  0
POLYLINE
  8
21
 66
1
 10
0.0000
 20
0.0000
 30
0.0000
 40
0.0762
 41
0.0762
 70
0
  0
VERTEX
  8
21
 10
3.1481
 20
6.3769
 30
0.0000
 42
1.0000
  0
VERTEX
  8
21
 10
3.2019
 20
6.3231
 30
0.0000
  0
SEQEND
  8
0
  0
POLYLINE
  8
21
 66
1
 10
0.0000
 20
0.0000
 30
0.0000
 40
0.0762
 41
0.0762
 70
0
  0
VERTEX
  8
21
 10
3.8369
 20
6.9581
 30
0.0000
 42
1.0000
  0
VERTEX
  8
21
 10
3.7831
 20
7.0119
 30
0.0000
  0
SEQEND
  8
0
  0
POLYLINE
  8
21
 66
1
 10
0.0000
 20
0.0000
 30
0.0000
 40
0.1524
 41
0.1524
 70
0
  0
VERTEX
  8
21
 10
1.2700
 20
1.9050
 30
0.0000
  0
VERTEX
  8
21
 10
1.2700
 20
3.1750
 30
0.0000
  0
SEQEND
  8
0
  0
POLYLINE
  8
21
 66
1
 10
0.0000
 20
0.0000
 30
0.0000
 40
0.0762
 41
0.0762
 70
0
  0
VERTEX
  8
21
 10
1.3081
 20
3.1750
 30
0.0000
 42
1.0000
  0
VERTEX
  8
21
 10
1.2319
 20
3.1750
 30
0.0000
  0
SEQEND
  8
0
  0
POLYLINE
  8
21
 66
1
 10
0.0000
 20
0.0000
 30
0.0000
 40
0.0762
 41
0.0762
 70
0
  0
VERTEX
  8
21
 10
1.2319
 20
1.9050
 30
0.0000
 42
1.0000
  0
VERTEX
  8
21
 10
1.3081
 20
1.9050
 30
0.0000
  0
SEQEND
  8
0
  0
POLYLINE
  8
21
 66
1
 10
0.0000
 20
0.0000
 30
0.0000
 40
0.1524
 41
0.1524
 70
0
  0
VERTEX
  8
21
 10
1.2700
 20
3.1750
 30
0.0000
  0
VERTEX
  8
21
 10
1.9050
 20
3.8100
 30
0.0000
  0
SEQEND
  8
0
  0
POLYLINE
  8
21
 66
1
 10
0.0000
 20
0.0000
 30
0.0000
 40
0.0762
 41
0.0762
 70
0
  0
VERTEX
  8
21
 10
1.9319
 20
3.7831
 30
0.0000
 42
1.0000
  0
VERTEX
  8
21
 10
1.8781
 20
3.8369
 30
0.0000
  0
SEQEND
  8
0
  0
POLYLINE
  8
21
 66
1
 10
0.0000
 20
0.0000
 30
0.0000
 40
0.0762
 41
0.0762
 70
0
  0
VERTEX
  8
21
 10
1.2431
 20
3.2019
 30
0.0000
 42
1.0000
  0
VERTEX
  8
21
 10
1.2969
 20
3.1481
 30
0.0000
  0
SEQEND
  8
0
  0
POLYLINE
  8
21
 66
1
 10
0.0000
 20
0.0000
 30
0.0000
 40
0.1524
 41
0.1524
 70
0
  0
VERTEX
  8
21
 10
1.9050
 20
3.8100
 30
0.0000
  0
VERTEX
  8
21
 10
3.1750
 20
3.8100
 30
0.0000
  0
SEQEND
  8
0
  0
POLYLINE
  8
21
 66
1
 10
0.0000
 20
0.0000
 30
0.0000
 40
0.0762
 41
0.0762
 70
0
  0
VERTEX
  8
21
 10
3.1750
 20
3.7719
 30
0.0000
 42
1.0000
  0
VERTEX
  8
21
 10
3.1750
 20
3.8481
 30
0.0000
  0
SEQEND
  8
0
  0
POLYLINE
  8
21
 66
1
 10
0.0000
 20
0.0000
 30
0.0000
 40
0.0762
 41
0.0762
 70
0
  0
VERTEX
  8
21
 10
1.9050
 20
3.8481
 30
0.0000
 42
1.0000
  0
VERTEX
  8
21
 10
1.9050
 20
3.7719
 30
0.0000
  0
SEQEND
  8
0
  0
POLYLINE
  8
21
 66
1
 10
0.0000
 20
0.0000
 30
0.0000
 40
0.1524
 41
0.1524
 70
0
  0
VERTEX
  8
21
 10
3.1750
 20
3.8100
 30
0.0000
  0
VERTEX
  8
21
 10
3.8100
 20
3.1750
 30
0.0000
  0
SEQEND
  8
0
  0
POLYLINE
  8
21
 66
1
 10
0.0000
 20
0.0000
 30
0.0000
 40
0.0762
 41
0.0762
 70
0
  0
VERTEX
  8
21
 10
3.7831
 20
3.1481
 30
0.0000
 42
1.0000
  0
VERTEX
  8
21
 10
3.8369
 20
3.2019
 30
0.0000
  0
SEQEND
  8
0
  0
POLYLINE
  8
21
 66
1
 10
0.0000
 20
0.0000
 30
0.0000
 40
0.0762
 41
0.0762
 70
0
  0
VERTEX
  8
21
 10
3.2019
 20
3.8369
 30
0.0000
 42
1.0000
  0
VERTEX
  8
21
 10
3.1481
 20
3.7831
 30
0.0000
  0
SEQEND
  8
0
  0
POLYLINE
  8
21
 66
1
 10
0.0000
 20
0.0000
 30
0.0000
 40
0.1524
 41
0.1524
 70
0
  0
VERTEX
  8
21
 10
1.9050
 20
3.8100
 30
0.0000
  0
VERTEX
  8
21
 10
1.2700
 20
4.4450
 30
0.0000
  0
SEQEND
  8
0
  0
POLYLINE
  8
21
 66
1
 10
0.0000
 20
0.0000
 30
0.0000
 40
0.0762
 41
0.0762
 70
0
  0
VERTEX
  8
21
 10
1.2969
 20
4.4719
 30
0.0000
 42
1.0000
  0
VERTEX
  8
21
 10
1.2431
 20
4.4181
 30
0.0000
  0
SEQEND
  8
0
  0
POLYLINE
  8
21
 66
1
 10
0.0000
 20
0.0000
 30
0.0000
 40
0.0762
 41
0.0762
 70
0
  0
VERTEX
  8
21
 10
1.8781
 20
3.7831
 30
0.0000
 42
1.0000
  0
VERTEX
  8
21
 10
1.9319
 20
3.8369
 30
0.0000
  0
SEQEND
  8
0
  0
POLYLINE
  8
21
 66
1
 10
0.0000
 20
0.0000
 30
0.0000
 40
0.1524
 41
0.1524
 70
0
  0
VERTEX
  8
21
 10
1.2700
 20
4.4450
 30
0.0000
  0
VERTEX
  8
21
 10
1.2700
 20
5.7150
 30
0.0000
  0
SEQEND
  8
0
  0
POLYLINE
  8
21
 66
1
 10
0.0000
 20
0.0000
 30
0.0000
 40
0.0762
 41
0.0762
 70
0
  0
VERTEX
  8
21
 10
1.3081
 20
5.7150
 30
0.0000
 42
1.0000
  0
VERTEX
  8
21
 10
1.2319
 20
5.7150
 30
0.0000
  0
SEQEND
  8
0
  0
POLYLINE
  8
21
 66
1
 10
0.0000
 20
0.0000
 30
0.0000
 40
0.0762
 41
0.0762
 70
0
  0
VERTEX
  8
21
 10
1.2319
 20
4.4450
 30
0.0000
 42
1.0000
  0
VERTEX
  8
21
 10
1.3081
 20
4.4450
 30
0.0000
  0
SEQEND
  8
0
  0
POLYLINE
  8
21
 66
1
 10
0.0000
 20
0.0000
 30
0.0000
 40
0.1524
 41
0.1524
 70
0
  0
VERTEX
  8
21
 10
1.2700
 20
5.7150
 30
0.0000
  0
VERTEX
  8
21
 10
1.9050
 20
6.3500
 30
0.0000
  0
SEQEND
  8
0
  0
POLYLINE
  8
21
 66
1
 10
0.0000
 20
0.0000
 30
0.0000
 40
0.0762
 41
0.0762
 70
0
  0
VERTEX
  8
21
 10
1.9319
 20
6.3231
 30
0.0000
 42
1.0000
  0
VERTEX
  8
21
 10
1.8781
 20
6.3769
 30
0.0000
  0
SEQEND
  8
0
  0
POLYLINE
  8
21
 66
1
 10
0.0000
 20
0.0000
 30
0.0000
 40
0.0762
 41
0.0762
 70
0
  0
VERTEX
  8
21
 10
1.2431
 20
5.7419
 30
0.0000
 42
1.0000
  0
VERTEX
  8
21
 10
1.2969
 20
5.6881
 30
0.0000
  0
SEQEND
  8
0
  0
POLYLINE
  8
21
 66
1
 10
0.0000
 20
0.0000
 30
0.0000
 40
0.1524
 41
0.1524
 70
0
  0
VERTEX
  8
21
 10
1.9050
 20
6.3500
 30
0.0000
  0
VERTEX
  8
21
 10
3.1750
 20
6.3500
 30
0.0000
  0
SEQEND
  8
0
  0
POLYLINE
  8
21
 66
1
 10
0.0000
 20
0.0000
 30
0.0000
 40
0.0762
 41
0.0762
 70
0
  0
VERTEX
  8
21
 10
3.1750
 20
6.3119
 30
0.0000
 42
1.0000
  0
VERTEX
  8
21
 10
3.1750
 20
6.3881
 30
0.0000
  0
SEQEND
  8
0
  0
POLYLINE
  8
21
 66
1
 10
0.0000
 20
0.0000
 30
0.0000
 40
0.0762
 41
0.0762
 70
0
  0
VERTEX
  8
21
 10
1.9050
 20
6.3881
 30
0.0000
 42
1.0000
  0
VERTEX
  8
21
 10
1.9050
 20
6.3119
 30
0.0000
  0
SEQEND
  8
0
  0
POLYLINE
  8
21
 66
1
 10
0.0000
 20
0.0000
 30
0.0000
 40
0.1524
 41
0.1524
 70
0
  0
VERTEX
  8
21
 10
3.1750
 20
6.3500
 30
0.0000
  0
VERTEX
  8
21
 10
3.8100
 20
5.7150
 30
0.0000
  0
SEQEND
  8
0
  0
POLYLINE
  8
21
 66
1
 10
0.0000
 20
0.0000
 30
0.0000
 40
0.0762
 41
0.0762
 70
0
  0
VERTEX
  8
21
 10
3.7831
 20
5.6881
 30
0.0000
 42
1.0000
  0
VERTEX
  8
21
 10
3.8369
 20
5.7419
 30
0.0000
  0
SEQEND
  8
0
  0
POLYLINE
  8
21
 66
1
 10
0.0000
 20
0.0000
 30
0.0000
 40
0.0762
 41
0.0762
 70
0
  0
VERTEX
  8
21
 10
3.2019
 20
6.3769
 30
0.0000
 42
1.0000
  0
VERTEX
  8
21
 10
3.1481
 20
6.3231
 30
0.0000
  0
SEQEND
  8
0
  0
POLYLINE
  8
21
 66
1
 10
0.0000
 20
0.0000
 30
0.0000
 40
0.1524
 41
0.1524
 70
0
  0
VERTEX
  8
21
 10
3.8100
 20
5.7150
 30
0.0000
  0
VERTEX
  8
21
 10
3.8100
 20
4.4450
 30
0.0000
  0
SEQEND
  8
0
  0
POLYLINE
  8
21
 66
1
 10
0.0000
 20
0.0000
 30
0.0000
 40
0.0762
 41
0.0762
 70
0
  0
VERTEX
  8
21
 10
3.7719
 20
4.4450
 30
0.0000
 42
1.0000
  0
VERTEX
  8
21
 10
3.8481
 20
4.4450
 30
0.0000
  0
SEQEND
  8
0
  0
POLYLINE
  8
21
 66
1
 10
0.0000
 20
0.0000
 30
0.0000
 40
0.0762
 41
0.0762
 70
0
  0
VERTEX
  8
21
 10
3.8481
 20
5.7150
 30
0.0000
 42
1.0000
  0
VERTEX
  8
21
 10
3.7719
 20
5.7150
 30
0.0000
  0
SEQEND
  8
0
  0
POLYLINE
  8
21
 66
1
 10
0.0000
 20
0.0000
 30
0.0000
 40
0.1524
 41
0.1524
 70
0
  0
VERTEX
  8
21
 10
3.8100
 20
4.4450
 30
0.0000
  0
VERTEX
  8
21
 10
3.1750
 20
3.8100
 30
0.0000
  0
SEQEND
  8
0
  0
POLYLINE
  8
21
 66
1
 10
0.0000
 20
0.0000
 30
0.0000
 40
0.0762
 41
0.0762
 70
0
  0
VERTEX
  8
21
 10
3.1481
 20
3.8369
 30
0.0000
 42
1.0000
  0
VERTEX
  8
21
 10
3.2019
 20
3.7831
 30
0.0000
  0
SEQEND
  8
0
  0
POLYLINE
  8
21
 66
1
 10
0.0000
 20
0.0000
 30
0.0000
 40
0.0762
 41
0.0762
 70
0
  0
VERTEX
  8
21
 10
3.8369
 20
4.4181
 30
0.0000
 42
1.0000
  0
VERTEX
  8
21
 10
3.7831
 20
4.4719
 30
0.0000
  0
SEQEND
  8
0
  0
POLYLINE
  8
21
 66
1
 10
0.0000
 20
0.0000
 30
0.0000
 40
0.1524
 41
0.1524
 70
0
  0
VERTEX
  8
21
 10
1.9050
 20
1.2700
 30
0.0000
  0
VERTEX
  8
21
 10
3.1750
 20
1.2700
 30
0.0000
  0
SEQEND
  8
0
  0
POLYLINE
  8
21
 66
1
 10
0.0000
 20
0.0000
 30
0.0000
 40
0.0762
 41
0.0762
 70
0
  0
VERTEX
  8
21
 10
3.1750
 20
1.2319
 30
0.0000
 42
1.0000
  0
VERTEX
  8
21
 10
3.1750
 20
1.3081
 30
0.0000
  0
SEQEND
  8
0
  0
POLYLINE
  8
21
 66
1
 10
0.0000
 20
0.0000
 30
0.0000
 40
0.0762
 41
0.0762
 70
0
  0
VERTEX
  8
21
 10
1.9050
 20
1.3081
 30
0.0000
 42
1.0000
  0
VERTEX
  8
21
 10
1.9050
 20
1.2319
 30
0.0000
  0
SEQEND
  8
0
  0
POLYLINE
  8
21
 66
1
 10
0.0000
 20
0.0000
 30
0.0000
 40
0.1524
 41
0.1524
 70
0
  0
VERTEX
  8
21
 10
1.2700
 20
1.9050
 30
0.0000
  0
VERTEX
  8
21
 10
1.9050
 20
1.2700
 30
0.0000
  0
SEQEND
  8
0
  0
POLYLINE
  8
21
 66
1
 10
0.0000
 20
0.0000
 30
0.0000
 40
0.0762
 41
0.0762
 70
0
  0
VERTEX
  8
21
 10
1.8781
 20
1.2431
 30
0.0000
 42
1.0000
  0
VERTEX
  8
21
 10
1.9319
 20
1.2969
 30
0.0000
  0
SEQEND
  8
0
  0
POLYLINE
  8
21
 66
1
 10
0.0000
 20
0.0000
 30
0.0000
 40
0.0762
 41
0.0762
 70
0
  0
VERTEX
  8
21
 10
1.2969
 20
1.9319
 30
0.0000
 42
1.0000
  0
VERTEX
  8
21
 10
1.2431
 20
1.8781
 30
0.0000
  0
SEQEND
  8
0
  0
POLYLINE
  8
21
 66
1
 10
0.0000
 20
0.0000
 30
0.0000
 40
0.1524
 41
0.1524
 70
0
  0
VERTEX
  8
21
 10
3.1750
 20
1.2700
 30
0.0000
  0
VERTEX
  8
21
 10
3.8100
 20
1.9050
 30
0.0000
  0
SEQEND
  8
0
  0
POLYLINE
  8
21
 66
1
 10
0.0000
 20
0.0000
 30
0.0000
 40
0.0762
 41
0.0762
 70
0
  0
VERTEX
  8
21
 10
3.8369
 20
1.8781
 30
0.0000
 42
1.0000
  0
VERTEX
  8
21
 10
3.7831
 20
1.9319
 30
0.0000
  0
SEQEND
  8
0
  0
POLYLINE
  8
21
 66
1
 10
0.0000
 20
0.0000
 30
0.0000
 40
0.0762
 41
0.0762
 70
0
  0
VERTEX
  8
21
 10
3.1481
 20
1.2969
 30
0.0000
 42
1.0000
  0
VERTEX
  8
21
 10
3.2019
 20
1.2431
 30
0.0000
  0
SEQEND
  8
0
  0
POLYLINE
  8
21
 66
1
 10
0.0000
 20
0.0000
 30
0.0000
 40
0.1524
 41
0.1524
 70
0
  0
VERTEX
  8
21
 10
3.8100
 20
3.1750
 30
0.0000
  0
VERTEX
  8
21
 10
3.8100
 20
1.9050
 30
0.0000
  0
SEQEND
  8
0
  0
POLYLINE
  8
21
 66
1
 10
0.0000
 20
0.0000
 30
0.0000
 40
0.0762
 41
0.0762
 70
0
  0
VERTEX
  8
21
 10
3.7719
 20
1.9050
 30
0.0000
 42
1.0000
  0
VERTEX
  8
21
 10
3.8481
 20
1.9050
 30
0.0000
  0
SEQEND
  8
0
  0
POLYLINE
  8
21
 66
1
 10
0.0000
 20
0.0000
 30
0.0000
 40
0.0762
 41
0.0762
 70
0
  0
VERTEX
  8
21
 10
3.8481
 20
3.1750
 30
0.0000
 42
1.0000
  0
VERTEX
  8
21
 10
3.7719
 20
3.1750
 30
0.0000
  0
SEQEND
  8
0
  0
POLYLINE
  8
21
 66
1
 10
0.0000
 20
0.0000
 30
0.0000
 40
0.1524
 41
0.1524
 70
0
  0
VERTEX
  8
21
 10
1.2700
 20
9.5250
 30
0.0000
  0
VERTEX
  8
21
 10
1.2700
 20
10.7950
 30
0.0000
  0
SEQEND
  8
0
  0
POLYLINE
  8
21
 66
1
 10
0.0000
 20
0.0000
 30
0.0000
 40
0.0762
 41
0.0762
 70
0
  0
VERTEX
  8
21
 10
1.3081
 20
10.7950
 30
0.0000
 42
1.0000
  0
VERTEX
  8
21
 10
1.2319
 20
10.7950
 30
0.0000
  0
SEQEND
  8
0
  0
POLYLINE
  8
21
 66
1
 10
0.0000
 20
0.0000
 30
0.0000
 40
0.0762
 41
0.0762
 70
0
  0
VERTEX
  8
21
 10
1.2319
 20
9.5250
 30
0.0000
 42
1.0000
  0
VERTEX
  8
21
 10
1.3081
 20
9.5250
 30
0.0000
  0
SEQEND
  8
0
  0
POLYLINE
  8
21
 66
1
 10
0.0000
 20
0.0000
 30
0.0000
 40
0.1524
 41
0.1524
 70
0
  0
VERTEX
  8
21
 10
1.2700
 20
10.7950
 30
0.0000
  0
VERTEX
  8
21
 10
1.9050
 20
11.4300
 30
0.0000
  0
SEQEND
  8
0
  0
POLYLINE
  8
21
 66
1
 10
0.0000
 20
0.0000
 30
0.0000
 40
0.0762
 41
0.0762
 70
0
  0
VERTEX
  8
21
 10
1.9319
 20
11.4031
 30
0.0000
 42
1.0000
  0
VERTEX
  8
21
 10
1.8781
 20
11.4569
 30
0.0000
  0
SEQEND
  8
0
  0
POLYLINE
  8
21
 66
1
 10
0.0000
 20
0.0000
 30
0.0000
 40
0.0762
 41
0.0762
 70
0
  0
VERTEX
  8
21
 10
1.2431
 20
10.8219
 30
0.0000
 42
1.0000
  0
VERTEX
  8
21
 10
1.2969
 20
10.7681
 30
0.0000
  0
SEQEND
  8
0
  0
POLYLINE
  8
21
 66
1
 10
0.0000
 20
0.0000
 30
0.0000
 40
0.1524
 41
0.1524
 70
0
  0
VERTEX
  8
21
 10
1.9050
 20
11.4300
 30
0.0000
  0
VERTEX
  8
21
 10
3.1750
 20
11.4300
 30
0.0000
  0
SEQEND
  8
0
  0
POLYLINE
  8
21
 66
1
 10
0.0000
 20
0.0000
 30
0.0000
 40
0.0762
 41
0.0762
 70
0
  0
VERTEX
  8
21
 10
3.1750
 20
11.3919
 30
0.0000
 42
1.0000
  0
VERTEX
  8
21
 10
3.1750
 20
11.4681
 30
0.0000
  0
SEQEND
  8
0
  0
POLYLINE
  8
21
 66
1
 10
0.0000
 20
0.0000
 30
0.0000
 40
0.0762
 41
0.0762
 70
0
  0
VERTEX
  8
21
 10
1.9050
 20
11.4681
 30
0.0000
 42
1.0000
  0
VERTEX
  8
21
 10
1.9050
 20
11.3919
 30
0.0000
  0
SEQEND
  8
0
  0
POLYLINE
  8
21
 66
1
 10
0.0000
 20
0.0000
 30
0.0000
 40
0.1524
 41
0.1524
 70
0
  0
VERTEX
  8
21
 10
3.1750
 20
11.4300
 30
0.0000
  0
VERTEX
  8
21
 10
3.8100
 20
10.7950
 30
0.0000
  0
SEQEND
  8
0
  0
POLYLINE
  8
21
 66
1
 10
0.0000
 20
0.0000
 30
0.0000
 40
0.0762
 41
0.0762
 70
0
  0
VERTEX
  8
21
 10
3.7831
 20
10.7681
 30
0.0000
 42
1.0000
  0
VERTEX
  8
21
 10
3.8369
 20
10.8219
 30
0.0000
  0
SEQEND
  8
0
  0
POLYLINE
  8
21
 66
1
 10
0.0000
 20
0.0000
 30
0.0000
 40
0.0762
 41
0.0762
 70
0
  0
VERTEX
  8
21
 10
3.2019
 20
11.4569
 30
0.0000
 42
1.0000
  0
VERTEX
  8
21
 10
3.1481
 20
11.4031
 30
0.0000
  0
SEQEND
  8
0
  0
POLYLINE
  8
21
 66
1
 10
0.0000
 20
0.0000
 30
0.0000
 40
0.1524
 41
0.1524
 70
0
  0
VERTEX
  8
21
 10
1.2700
 20
9.5250
 30
0.0000
  0
VERTEX
  8
21
 10
1.9050
 20
8.8900
 30
0.0000
  0
SEQEND
  8
0
  0
POLYLINE
  8
21
 66
1
 10
0.0000
 20
0.0000
 30
0.0000
 40
0.0762
 41
0.0762
 70
0
  0
VERTEX
  8
21
 10
1.8781
 20
8.8631
 30
0.0000
 42
1.0000
  0
VERTEX
  8
21
 10
1.9319
 20
8.9169
 30
0.0000
  0
SEQEND
  8
0
  0
POLYLINE
  8
21
 66
1
 10
0.0000
 20
0.0000
 30
0.0000
 40
0.0762
 41
0.0762
 70
0
  0
VERTEX
  8
21
 10
1.2969
 20
9.5519
 30
0.0000
 42
1.0000
  0
VERTEX
  8
21
 10
1.2431
 20
9.4981
 30
0.0000
  0
SEQEND
  8
0
  0
POLYLINE
  8
21
 66
1
 10
0.0000
 20
0.0000
 30
0.0000
 40
0.1524
 41
0.1524
 70
0
  0
VERTEX
  8
21
 10
3.1750
 20
8.8900
 30
0.0000
  0
VERTEX
  8
21
 10
3.8100
 20
9.5250
 30
0.0000
  0
SEQEND
  8
0
  0
POLYLINE
  8
21
 66
1
 10
0.0000
 20
0.0000
 30
0.0000
 40
0.0762
 41
0.0762
 70
0
  0
VERTEX
  8
21
 10
3.8369
 20
9.4981
 30
0.0000
 42
1.0000
  0
VERTEX
  8
21
 10
3.7831
 20
9.5519
 30
0.0000
  0
SEQEND
  8
0
  0
POLYLINE
  8
21
 66
1
 10
0.0000
 20
0.0000
 30
0.0000
 40
0.0762
 41
0.0762
 70
0
  0
VERTEX
  8
21
 10
3.1481
 20
8.9169
 30
0.0000
 42
1.0000
  0
VERTEX
  8
21
 10
3.2019
 20
8.8631
 30
0.0000
  0
SEQEND
  8
0
  0
POLYLINE
  8
21
 66
1
 10
0.0000
 20
0.0000
 30
0.0000
 40
0.1524
 41
0.1524
 70
0
  0
VERTEX
  8
21
 10
3.8100
 20
10.7950
 30
0.0000
  0
VERTEX
  8
21
 10
3.8100
 20
9.5250
 30
0.0000
  0
SEQEND
  8
0
  0
POLYLINE
  8
21
 66
1
 10
0.0000
 20
0.0000
 30
0.0000
 40
0.0762
 41
0.0762
 70
0
  0
VERTEX
  8
21
 10
3.7719
 20
9.5250
 30
0.0000
 42
1.0000
  0
VERTEX
  8
21
 10
3.8481
 20
9.5250
 30
0.0000
  0
SEQEND
  8
0
  0
POLYLINE
  8
21
 66
1
 10
0.0000
 20
0.0000
 30
0.0000
 40
0.0762
 41
0.0762
 70
0
  0
VERTEX
  8
21
 10
3.8481
 20
10.7950
 30
0.0000
 42
1.0000
  0
VERTEX
  8
21
 10
3.7719
 20
10.7950
 30
0.0000
  0
SEQEND
  8
0
  0
POLYLINE
  8
25
 66
1
 10
0.0000
 20
0.0000
 30
0.0000
 40
0.1270
 41
0.1270
 70
0
  0
VERTEX
  8
25
 10
0.4570
 20
1.2573
 30
0.0000
  0
VERTEX
  8
25
 10
0.6477
 20
1.4480
 30
0.0000
  0
SEQEND
  8
0
  0
POLYLINE
  8
25
 66
1
 10
0.0000
 20
0.0000
 30
0.0000
 40
0.0635
 41
0.0635
 70
0
  0
VERTEX
  8
25
 10
0.6702
 20
1.4255
 30
0.0000
 42
1.0000
  0
VERTEX
  8
25
 10
0.6252
 20
1.4704
 30
0.0000
  0
SEQEND
  8
0
  0
POLYLINE
  8
25
 66
1
 10
0.0000
 20
0.0000
 30
0.0000
 40
0.0635
 41
0.0635
 70
0
  0
VERTEX
  8
25
 10
0.4346
 20
1.2798
 30
0.0000
 42
1.0000
  0
VERTEX
  8
25
 10
0.4795
 20
1.2348
 30
0.0000
  0
SEQEND
  8
0
  0
POLYLINE
  8
25
 66
1
 10
0.0000
 20
0.0000
 30
0.0000
 40
0.1270
 41
0.1270
 70
0
  0
VERTEX
  8
25
 10
0.6477
 20
1.4480
 30
0.0000
  0
VERTEX
  8
25
 10
0.6477
 20
1.6386
 30
0.0000
  0
SEQEND
  8
0
  0
POLYLINE
  8
25
 66
1
 10
0.0000
 20
0.0000
 30
0.0000
 40
0.0635
 41
0.0635
 70
0
  0
VERTEX
  8
25
 10
0.6795
 20
1.6386
 30
0.0000
 42
1.0000
  0
VERTEX
  8
25
 10
0.6159
 20
1.6386
 30
0.0000
  0
SEQEND
  8
0
  0
POLYLINE
  8
25
 66
1
 10
0.0000
 20
0.0000
 30
0.0000
 40
0.0635
 41
0.0635
 70
0
  0
VERTEX
  8
25
 10
0.6159
 20
1.4480
 30
0.0000
 42
1.0000
  0
VERTEX
  8
25
 10
0.6795
 20
1.4480
 30
0.0000
  0
SEQEND
  8
0
  0
POLYLINE
  8
25
 66
1
 10
0.0000
 20
0.0000
 30
0.0000
 40
0.1270
 41
0.1270
 70
0
  0
VERTEX
  8
25
 10
0.6477
 20
1.6386
 30
0.0000
  0
VERTEX
  8
25
 10
0.4570
 20
1.8293
 30
0.0000
  0
SEQEND
  8
0
  0
POLYLINE
  8
25
 66
1
 10
0.0000
 20
0.0000
 30
0.0000
 40
0.0635
 41
0.0635
 70
0
  0
VERTEX
  8
25
 10
0.4795
 20
1.8517
 30
0.0000
 42
1.0000
  0
VERTEX
  8
25
 10
0.4346
 20
1.8068
 30
0.0000
  0
SEQEND
  8
0
  0
POLYLINE
  8
25
 66
1
 10
0.0000
 20
0.0000
 30
0.0000
 40
0.0635
 41
0.0635
 70
0
  0
VERTEX
  8
25
 10
0.6252
 20
1.6162
 30
0.0000
 42
1.0000
  0
VERTEX
  8
25
 10
0.6702
 20
1.6611
 30
0.0000
  0
SEQEND
  8
0
  0
POLYLINE
  8
25
 66
1
 10
0.0000
 20
0.0000
 30
0.0000
 40
0.1270
 41
0.1270
 70
0
  0
VERTEX
  8
25
 10
0.4570
 20
1.8293
 30
0.0000
  0
VERTEX
  8
25
 10
-0.4963
 20
1.8293
 30
0.0000
  0
SEQEND
  8
0
  0
POLYLINE
  8
25
 66
1
 10
0.0000
 20
0.0000
 30
0.0000
 40
0.0635
 41
0.0635
 70
0
  0
VERTEX
  8
25
 10
-0.4963
 20
1.8610
 30
0.0000
 42
1.0000
  0
VERTEX
  8
25
 10
-0.4963
 20
1.7975
 30
0.0000
  0
SEQEND
  8
0
  0
POLYLINE
  8
25
 66
1
 10
0.0000
 20
0.0000
 30
0.0000
 40
0.0635
 41
0.0635
 70
0
  0
VERTEX
  8
25
 10
0.4570
 20
1.7975
 30
0.0000
 42
1.0000
  0
VERTEX
  8
25
 10
0.4570
 20
1.8610
 30
0.0000
  0
SEQEND
  8
0
  0
POLYLINE
  8
25
 66
1
 10
0.0000
 20
0.0000
 30
0.0000
 40
0.1270
 41
0.1270
 70
0
  0
VERTEX
  8
25
 10
-0.4963
 20
1.6386
 30
0.0000
  0
VERTEX
  8
25
 10
-0.4963
 20
2.0200
 30
0.0000
  0
SEQEND
  8
0
  0
POLYLINE
  8
25
 66
1
 10
0.0000
 20
0.0000
 30
0.0000
 40
0.0635
 41
0.0635
 70
0
  0
VERTEX
  8
25
 10
-0.4645
 20
2.0200
 30
0.0000
 42
1.0000
  0
VERTEX
  8
25
 10
-0.5280
 20
2.0200
 30
0.0000
  0
SEQEND
  8
0
  0
POLYLINE
  8
25
 66
1
 10
0.0000
 20
0.0000
 30
0.0000
 40
0.0635
 41
0.0635
 70
0
  0
VERTEX
  8
25
 10
-0.5280
 20
1.6386
 30
0.0000
 42
1.0000
  0
VERTEX
  8
25
 10
-0.4645
 20
1.6386
 30
0.0000
  0
SEQEND
  8
0
  0
POLYLINE
  8
25
 66
1
 10
0.0000
 20
0.0000
 30
0.0000
 40
0.1270
 41
0.1270
 70
0
  0
VERTEX
  8
25
 10
0.6477
 20
2.4267
 30
0.0000
  0
VERTEX
  8
25
 10
-0.4963
 20
2.4267
 30
0.0000
  0
SEQEND
  8
0
  0
POLYLINE
  8
25
 66
1
 10
0.0000
 20
0.0000
 30
0.0000
 40
0.0635
 41
0.0635
 70
0
  0
VERTEX
  8
25
 10
-0.4963
 20
2.4584
 30
0.0000
 42
1.0000
  0
VERTEX
  8
25
 10
-0.4963
 20
2.3949
 30
0.0000
  0
SEQEND
  8
0
  0
POLYLINE
  8
25
 66
1
 10
0.0000
 20
0.0000
 30
0.0000
 40
0.0635
 41
0.0635
 70
0
  0
VERTEX
  8
25
 10
0.6477
 20
2.3949
 30
0.0000
 42
1.0000
  0
VERTEX
  8
25
 10
0.6477
 20
2.4584
 30
0.0000
  0
SEQEND
  8
0
  0
POLYLINE
  8
25
 66
1
 10
0.0000
 20
0.0000
 30
0.0000
 40
0.1270
 41
0.1270
 70
0
  0
VERTEX
  8
25
 10
-0.4963
 20
2.4267
 30
0.0000
  0
VERTEX
  8
25
 10
-0.4963
 20
2.9987
 30
0.0000
  0
SEQEND
  8
0
  0
POLYLINE
  8
25
 66
1
 10
0.0000
 20
0.0000
 30
0.0000
 40
0.0635
 41
0.0635
 70
0
  0
VERTEX
  8
25
 10
-0.4645
 20
2.9987
 30
0.0000
 42
1.0000
  0
VERTEX
  8
25
 10
-0.5280
 20
2.9987
 30
0.0000
  0
SEQEND
  8
0
  0
POLYLINE
  8
25
 66
1
 10
0.0000
 20
0.0000
 30
0.0000
 40
0.0635
 41
0.0635
 70
0
  0
VERTEX
  8
25
 10
-0.5280
 20
2.4267
 30
0.0000
 42
1.0000
  0
VERTEX
  8
25
 10
-0.4645
 20
2.4267
 30
0.0000
  0
SEQEND
  8
0
  0
POLYLINE
  8
25
 66
1
 10
0.0000
 20
0.0000
 30
0.0000
 40
0.1270
 41
0.1270
 70
0
  0
VERTEX
  8
25
 10
-0.4963
 20
2.9987
 30
0.0000
  0
VERTEX
  8
25
 10
-0.3056
 20
3.1893
 30
0.0000
  0
SEQEND
  8
0
  0
POLYLINE
  8
25
 66
1
 10
0.0000
 20
0.0000
 30
0.0000
 40
0.0635
 41
0.0635
 70
0
  0
VERTEX
  8
25
 10
-0.2832
 20
3.1669
 30
0.0000
 42
1.0000
  0
VERTEX
  8
25
 10
-0.3281
 20
3.2118
 30
0.0000
  0
SEQEND
  8
0
  0
POLYLINE
  8
25
 66
1
 10
0.0000
 20
0.0000
 30
0.0000
 40
0.0635
 41
0.0635
 70
0
  0
VERTEX
  8
25
 10
-0.5187
 20
3.0211
 30
0.0000
 42
1.0000
  0
VERTEX
  8
25
 10
-0.4738
 20
2.9762
 30
0.0000
  0
SEQEND
  8
0
  0
POLYLINE
  8
25
 66
1
 10
0.0000
 20
0.0000
 30
0.0000
 40
0.1270
 41
0.1270
 70
0
  0
VERTEX
  8
25
 10
-0.3056
 20
3.1893
 30
0.0000
  0
VERTEX
  8
25
 10
0.0757
 20
3.1893
 30
0.0000
  0
SEQEND
  8
0
  0
POLYLINE
  8
25
 66
1
 10
0.0000
 20
0.0000
 30
0.0000
 40
0.0635
 41
0.0635
 70
0
  0
VERTEX
  8
25
 10
0.0757
 20
3.1576
 30
0.0000
 42
1.0000
  0
VERTEX
  8
25
 10
0.0757
 20
3.2211
 30
0.0000
  0
SEQEND
  8
0
  0
POLYLINE
  8
25
 66
1
 10
0.0000
 20
0.0000
 30
0.0000
 40
0.0635
 41
0.0635
 70
0
  0
VERTEX
  8
25
 10
-0.3056
 20
3.2211
 30
0.0000
 42
1.0000
  0
VERTEX
  8
25
 10
-0.3056
 20
3.1576
 30
0.0000
  0
SEQEND
  8
0
  0
POLYLINE
  8
25
 66
1
 10
0.0000
 20
0.0000
 30
0.0000
 40
0.1270
 41
0.1270
 70
0
  0
VERTEX
  8
25
 10
0.0757
 20
3.1893
 30
0.0000
  0
VERTEX
  8
25
 10
0.2664
 20
2.9987
 30
0.0000
  0
SEQEND
  8
0
  0
POLYLINE
  8
25
 66
1
 10
0.0000
 20
0.0000
 30
0.0000
 40
0.0635
 41
0.0635
 70
0
  0
VERTEX
  8
25
 10
0.2439
 20
2.9762
 30
0.0000
 42
1.0000
  0
VERTEX
  8
25
 10
0.2888
 20
3.0211
 30
0.0000
  0
SEQEND
  8
0
  0
POLYLINE
  8
25
 66
1
 10
0.0000
 20
0.0000
 30
0.0000
 40
0.0635
 41
0.0635
 70
0
  0
VERTEX
  8
25
 10
0.0982
 20
3.2118
 30
0.0000
 42
1.0000
  0
VERTEX
  8
25
 10
0.0533
 20
3.1669
 30
0.0000
  0
SEQEND
  8
0
  0
POLYLINE
  8
25
 66
1
 10
0.0000
 20
0.0000
 30
0.0000
 40
0.1270
 41
0.1270
 70
0
  0
VERTEX
  8
25
 10
0.2664
 20
2.9987
 30
0.0000
  0
VERTEX
  8
25
 10
0.2664
 20
2.4267
 30
0.0000
  0
SEQEND
  8
0
  0
POLYLINE
  8
25
 66
1
 10
0.0000
 20
0.0000
 30
0.0000
 40
0.0635
 41
0.0635
 70
0
  0
VERTEX
  8
25
 10
0.2346
 20
2.4267
 30
0.0000
 42
1.0000
  0
VERTEX
  8
25
 10
0.2981
 20
2.4267
 30
0.0000
  0
SEQEND
  8
0
  0
POLYLINE
  8
25
 66
1
 10
0.0000
 20
0.0000
 30
0.0000
 40
0.0635
 41
0.0635
 70
0
  0
VERTEX
  8
25
 10
0.2981
 20
2.9987
 30
0.0000
 42
1.0000
  0
VERTEX
  8
25
 10
0.2346
 20
2.9987
 30
0.0000
  0
SEQEND
  8
0
  0
POLYLINE
  8
25
 66
1
 10
0.0000
 20
0.0000
 30
0.0000
 40
0.1270
 41
0.1270
 70
0
  0
VERTEX
  8
25
 10
-0.3056
 20
3.5961
 30
0.0000
  0
VERTEX
  8
25
 10
-0.4963
 20
3.7868
 30
0.0000
  0
SEQEND
  8
0
  0
POLYLINE
  8
25
 66
1
 10
0.0000
 20
0.0000
 30
0.0000
 40
0.0635
 41
0.0635
 70
0
  0
VERTEX
  8
25
 10
-0.4738
 20
3.8092
 30
0.0000
 42
1.0000
  0
VERTEX
  8
25
 10
-0.5187
 20
3.7643
 30
0.0000
  0
SEQEND
  8
0
  0
POLYLINE
  8
25
 66
1
 10
0.0000
 20
0.0000
 30
0.0000
 40
0.0635
 41
0.0635
 70
0
  0
VERTEX
  8
25
 10
-0.3281
 20
3.5736
 30
0.0000
 42
1.0000
  0
VERTEX
  8
25
 10
-0.2832
 20
3.6185
 30
0.0000
  0
SEQEND
  8
0
  0
POLYLINE
  8
25
 66
1
 10
0.0000
 20
0.0000
 30
0.0000
 40
0.1270
 41
0.1270
 70
0
  0
VERTEX
  8
25
 10
-0.4963
 20
3.7868
 30
0.0000
  0
VERTEX
  8
25
 10
-0.4963
 20
4.1681
 30
0.0000
  0
SEQEND
  8
0
  0
POLYLINE
  8
25
 66
1
 10
0.0000
 20
0.0000
 30
0.0000
 40
0.0635
 41
0.0635
 70
0
  0
VERTEX
  8
25
 10
-0.4645
 20
4.1681
 30
0.0000
 42
1.0000
  0
VERTEX
  8
25
 10
-0.5280
 20
4.1681
 30
0.0000
  0
SEQEND
  8
0
  0
POLYLINE
  8
25
 66
1
 10
0.0000
 20
0.0000
 30
0.0000
 40
0.0635
 41
0.0635
 70
0
  0
VERTEX
  8
25
 10
-0.5280
 20
3.7868
 30
0.0000
 42
1.0000
  0
VERTEX
  8
25
 10
-0.4645
 20
3.7868
 30
0.0000
  0
SEQEND
  8
0
  0
POLYLINE
  8
25
 66
1
 10
0.0000
 20
0.0000
 30
0.0000
 40
0.1270
 41
0.1270
 70
0
  0
VERTEX
  8
25
 10
-0.4963
 20
4.1681
 30
0.0000
  0
VERTEX
  8
25
 10
-0.3056
 20
4.3587
 30
0.0000
  0
SEQEND
  8
0
  0
POLYLINE
  8
25
 66
1
 10
0.0000
 20
0.0000
 30
0.0000
 40
0.0635
 41
0.0635
 70
0
  0
VERTEX
  8
25
 10
-0.2832
 20
4.3363
 30
0.0000
 42
1.0000
  0
VERTEX
  8
25
 10
-0.3281
 20
4.3812
 30
0.0000
  0
SEQEND
  8
0
  0
POLYLINE
  8
25
 66
1
 10
0.0000
 20
0.0000
 30
0.0000
 40
0.0635
 41
0.0635
 70
0
  0
VERTEX
  8
25
 10
-0.5187
 20
4.1905
 30
0.0000
 42
1.0000
  0
VERTEX
  8
25
 10
-0.4738
 20
4.1456
 30
0.0000
  0
SEQEND
  8
0
  0
POLYLINE
  8
25
 66
1
 10
0.0000
 20
0.0000
 30
0.0000
 40
0.1270
 41
0.1270
 70
0
  0
VERTEX
  8
25
 10
-0.3056
 20
4.3587
 30
0.0000
  0
VERTEX
  8
25
 10
-0.1150
 20
4.3587
 30
0.0000
  0
SEQEND
  8
0
  0
POLYLINE
  8
25
 66
1
 10
0.0000
 20
0.0000
 30
0.0000
 40
0.0635
 41
0.0635
 70
0
  0
VERTEX
  8
25
 10
-0.1150
 20
4.3270
 30
0.0000
 42
1.0000
  0
VERTEX
  8
25
 10
-0.1150
 20
4.3905
 30
0.0000
  0
SEQEND
  8
0
  0
POLYLINE
  8
25
 66
1
 10
0.0000
 20
0.0000
 30
0.0000
 40
0.0635
 41
0.0635
 70
0
  0
VERTEX
  8
25
 10
-0.3056
 20
4.3905
 30
0.0000
 42
1.0000
  0
VERTEX
  8
25
 10
-0.3056
 20
4.3270
 30
0.0000
  0
SEQEND
  8
0
  0
POLYLINE
  8
25
 66
1
 10
0.0000
 20
0.0000
 30
0.0000
 40
0.1270
 41
0.1270
 70
0
  0
VERTEX
  8
25
 10
-0.1150
 20
4.3587
 30
0.0000
  0
VERTEX
  8
25
 10
0.0757
 20
4.1681
 30
0.0000
  0
SEQEND
  8
0
  0
POLYLINE
  8
25
 66
1
 10
0.0000
 20
0.0000
 30
0.0000
 40
0.0635
 41
0.0635
 70
0
  0
VERTEX
  8
25
 10
0.0533
 20
4.1456
 30
0.0000
 42
1.0000
  0
VERTEX
  8
25
 10
0.0982
 20
4.1905
 30
0.0000
  0
SEQEND
  8
0
  0
POLYLINE
  8
25
 66
1
 10
0.0000
 20
0.0000
 30
0.0000
 40
0.0635
 41
0.0635
 70
0
  0
VERTEX
  8
25
 10
-0.0925
 20
4.3812
 30
0.0000
 42
1.0000
  0
VERTEX
  8
25
 10
-0.1374
 20
4.3363
 30
0.0000
  0
SEQEND
  8
0
  0
POLYLINE
  8
25
 66
1
 10
0.0000
 20
0.0000
 30
0.0000
 40
0.1270
 41
0.1270
 70
0
  0
VERTEX
  8
25
 10
0.0757
 20
4.1681
 30
0.0000
  0
VERTEX
  8
25
 10
0.0757
 20
3.9774
 30
0.0000
  0
SEQEND
  8
0
  0
POLYLINE
  8
25
 66
1
 10
0.0000
 20
0.0000
 30
0.0000
 40
0.0635
 41
0.0635
 70
0
  0
VERTEX
  8
25
 10
0.0440
 20
3.9774
 30
0.0000
 42
1.0000
  0
VERTEX
  8
25
 10
0.1075
 20
3.9774
 30
0.0000
  0
SEQEND
  8
0
  0
POLYLINE
  8
25
 66
1
 10
0.0000
 20
0.0000
 30
0.0000
 40
0.0635
 41
0.0635
 70
0
  0
VERTEX
  8
25
 10
0.1075
 20
4.1681
 30
0.0000
 42
1.0000
  0
VERTEX
  8
25
 10
0.0440
 20
4.1681
 30
0.0000
  0
SEQEND
  8
0
  0
POLYLINE
  8
25
 66
1
 10
0.0000
 20
0.0000
 30
0.0000
 40
0.1270
 41
0.1270
 70
0
  0
VERTEX
  8
25
 10
0.0757
 20
4.1681
 30
0.0000
  0
VERTEX
  8
25
 10
0.2664
 20
4.3587
 30
0.0000
  0
SEQEND
  8
0
  0
POLYLINE
  8
25
 66
1
 10
0.0000
 20
0.0000
 30
0.0000
 40
0.0635
 41
0.0635
 70
0
  0
VERTEX
  8
25
 10
0.2888
 20
4.3363
 30
0.0000
 42
1.0000
  0
VERTEX
  8
25
 10
0.2439
 20
4.3812
 30
0.0000
  0
SEQEND
  8
0
  0
POLYLINE
  8
25
 66
1
 10
0.0000
 20
0.0000
 30
0.0000
 40
0.0635
 41
0.0635
 70
0
  0
VERTEX
  8
25
 10
0.0533
 20
4.1905
 30
0.0000
 42
1.0000
  0
VERTEX
  8
25
 10
0.0982
 20
4.1456
 30
0.0000
  0
SEQEND
  8
0
  0
POLYLINE
  8
25
 66
1
 10
0.0000
 20
0.0000
 30
0.0000
 40
0.1270
 41
0.1270
 70
0
  0
VERTEX
  8
25
 10
0.2664
 20
4.3587
 30
0.0000
  0
VERTEX
  8
25
 10
0.4570
 20
4.3587
 30
0.0000
  0
SEQEND
  8
0
  0
POLYLINE
  8
25
 66
1
 10
0.0000
 20
0.0000
 30
0.0000
 40
0.0635
 41
0.0635
 70
0
  0
VERTEX
  8
25
 10
0.4570
 20
4.3270
 30
0.0000
 42
1.0000
  0
VERTEX
  8
25
 10
0.4570
 20
4.3905
 30
0.0000
  0
SEQEND
  8
0
  0
POLYLINE
  8
25
 66
1
 10
0.0000
 20
0.0000
 30
0.0000
 40
0.0635
 41
0.0635
 70
0
  0
VERTEX
  8
25
 10
0.2664
 20
4.3905
 30
0.0000
 42
1.0000
  0
VERTEX
  8
25
 10
0.2664
 20
4.3270
 30
0.0000
  0
SEQEND
  8
0
  0
POLYLINE
  8
25
 66
1
 10
0.0000
 20
0.0000
 30
0.0000
 40
0.1270
 41
0.1270
 70
0
  0
VERTEX
  8
25
 10
0.4570
 20
4.3587
 30
0.0000
  0
VERTEX
  8
25
 10
0.6477
 20
4.1681
 30
0.0000
  0
SEQEND
  8
0
  0
POLYLINE
  8
25
 66
1
 10
0.0000
 20
0.0000
 30
0.0000
 40
0.0635
 41
0.0635
 70
0
  0
VERTEX
  8
25
 10
0.6252
 20
4.1456
 30
0.0000
 42
1.0000
  0
VERTEX
  8
25
 10
0.6702
 20
4.1905
 30
0.0000
  0
SEQEND
  8
0
  0
POLYLINE
  8
25
 66
1
 10
0.0000
 20
0.0000
 30
0.0000
 40
0.0635
 41
0.0635
 70
0
  0
VERTEX
  8
25
 10
0.4795
 20
4.3812
 30
0.0000
 42
1.0000
  0
VERTEX
  8
25
 10
0.4346
 20
4.3363
 30
0.0000
  0
SEQEND
  8
0
  0
POLYLINE
  8
25
 66
1
 10
0.0000
 20
0.0000
 30
0.0000
 40
0.1270
 41
0.1270
 70
0
  0
VERTEX
  8
25
 10
0.6477
 20
4.1681
 30
0.0000
  0
VERTEX
  8
25
 10
0.6477
 20
3.7868
 30
0.0000
  0
SEQEND
  8
0
  0
POLYLINE
  8
25
 66
1
 10
0.0000
 20
0.0000
 30
0.0000
 40
0.0635
 41
0.0635
 70
0
  0
VERTEX
  8
25
 10
0.6159
 20
3.7868
 30
0.0000
 42
1.0000
  0
VERTEX
  8
25
 10
0.6795
 20
3.7868
 30
0.0000
  0
SEQEND
  8
0
  0
POLYLINE
  8
25
 66
1
 10
0.0000
 20
0.0000
 30
0.0000
 40
0.0635
 41
0.0635
 70
0
  0
VERTEX
  8
25
 10
0.6795
 20
4.1681
 30
0.0000
 42
1.0000
  0
VERTEX
  8
25
 10
0.6159
 20
4.1681
 30
0.0000
  0
SEQEND
  8
0
  0
POLYLINE
  8
25
 66
1
 10
0.0000
 20
0.0000
 30
0.0000
 40
0.1270
 41
0.1270
 70
0
  0
VERTEX
  8
25
 10
0.6477
 20
3.7868
 30
0.0000
  0
VERTEX
  8
25
 10
0.4570
 20
3.5961
 30
0.0000
  0
SEQEND
  8
0
  0
POLYLINE
  8
25
 66
1
 10
0.0000
 20
0.0000
 30
0.0000
 40
0.0635
 41
0.0635
 70
0
  0
VERTEX
  8
25
 10
0.4346
 20
3.6185
 30
0.0000
 42
1.0000
  0
VERTEX
  8
25
 10
0.4795
 20
3.5736
 30
0.0000
  0
SEQEND
  8
0
  0
POLYLINE
  8
25
 66
1
 10
0.0000
 20
0.0000
 30
0.0000
 40
0.0635
 41
0.0635
 70
0
  0
VERTEX
  8
25
 10
0.6702
 20
3.7643
 30
0.0000
 42
1.0000
  0
VERTEX
  8
25
 10
0.6252
 20
3.8092
 30
0.0000
  0
SEQEND
  8
0
  0
INSERT
  8
51
  2
RECT
 10
2.5400
 20
7.6200
 30
0.0000
 41
0.5080
 42
0.5080
 43
1.0000
 50
90.0000
  0
INSERT
  8
51
  2
RECT
 10
2.5400
 20
5.0800
 30
0.0000
 41
0.5080
 42
0.5080
 43
1.0000
 50
90.0000
  0
INSERT
  8
51
  2
RECT
 10
2.5400
 20
2.5400
 30
0.0000
 41
0.5080
 42
0.5080
 43
1.0000
 50
90.0000
  0
INSERT
  8
51
  2
RECT
 10
2.5400
 20
10.1600
 30
0.0000
 41
0.5080
 42
0.5080
 43
1.0000
 50
90.0000
  0
INSERT
  8
17
  2
LONGP100
 10
2.5400
 20
2.5400
 30
0.0000
 41
1.5240
 42
1.5240
 43
1.0000
 50
180.0000
  0
INSERT
  8
17
  2
LONGP100
 10
2.5400
 20
2.5400
 30
0.0000
 41
1.5240
 42
1.5240
 43
1.0000
 50
180.0000
  0
INSERT
  8
17
  2
LONGP100
 10
2.5400
 20
5.0800
 30
0.0000
 41
1.5240
 42
1.5240
 43
1.0000
 50
180.0000
  0
INSERT
  8
17
  2
LONGP100
 10
2.5400
 20
5.0800
 30
0.0000
 41
1.5240
 42
1.5240
 43
1.0000
 50
180.0000
  0
INSERT
  8
17
  2
LONGP100
 10
2.5400
 20
7.6200
 30
0.0000
 41
1.5240
 42
1.5240
 43
1.0000
 50
180.0000
  0
INSERT
  8
17
  2
LONGP100
 10
2.5400
 20
7.6200
 30
0.0000
 41
1.5240
 42
1.5240
 43
1.0000
 50
180.0000
  0
INSERT
  8
17
  2
LONGP100
 10
2.5400
 20
10.1600
 30
0.0000
 41
1.5240
 42
1.5240
 43
1.0000
 50
180.0000
  0
INSERT
  8
17
  2
LONGP100
 10
2.5400
 20
10.1600
 30
0.0000
 41
1.5240
 42
1.5240
 43
1.0000
 50
180.0000
  0
POLYLINE
  8
16
 66
1
 10
0.0000
 20
0.0000
 30
0.0000
 40
1.2700
 41
1.2700
 70
0
  0
VERTEX
  8
16
 10
7.6200
 20
2.5400
 30
0.0000
  0
VERTEX
  8
16
 10
10.1600
 20
2.5400
 30
0.0000
  0
SEQEND
  8
0
  0
POLYLINE
  8
16
 66
1
 10
0.0000
 20
0.0000
 30
0.0000
 40
0.6350
 41
0.6350
 70
0
  0
VERTEX
  8
16
 10
10.1600
 20
2.2225
 30
0.0000
 42
1.0000
  0
VERTEX
  8
16
 10
10.1600
 20
2.8575
 30
0.0000
  0
SEQEND
  8
0
  0
POLYLINE
  8
16
 66
1
 10
0.0000
 20
0.0000
 30
0.0000
 40
0.6350
 41
0.6350
 70
0
  0
VERTEX
  8
16
 10
7.6200
 20
2.8575
 30
0.0000
 42
1.0000
  0
VERTEX
  8
16
 10
7.6200
 20
2.2225
 30
0.0000
  0
SEQEND
  8
0
  0
POLYLINE
  8
16
 66
1
 10
0.0000
 20
0.0000
 30
0.0000
 40
1.2700
 41
1.2700
 70
0
  0
VERTEX
  8
16
 10
10.1600
 20
5.0800
 30
0.0000
  0
VERTEX
  8
16
 10
7.6200
 20
5.0800
 30
0.0000
  0
SEQEND
  8
0
  0
POLYLINE
  8
16
 66
1
 10
0.0000
 20
0.0000
 30
0.0000
 40
0.6350
 41
0.6350
 70
0
  0
VERTEX
  8
16
 10
7.6200
 20
5.3975
 30
0.0000
 42
1.0000
  0
VERTEX
  8
16
 10
7.6200
 20
4.7625
 30
0.0000
  0
SEQEND
  8
0
  0
POLYLINE
  8
16
 66
1
 10
0.0000
 20
0.0000
 30
0.0000
 40
0.6350
 41
0.6350
 70
0
  0
VERTEX
  8
16
 10
10.1600
 20
4.7625
 30
0.0000
 42
1.0000
  0
VERTEX
  8
16
 10
10.1600
 20
5.3975
 30
0.0000
  0
SEQEND
  8
0
  0
POLYLINE
  8
16
 66
1
 10
0.0000
 20
0.0000
 30
0.0000
 40
1.2700
 41
1.2700
 70
0
  0
VERTEX
  8
16
 10
7.6200
 20
7.6200
 30
0.0000
  0
VERTEX
  8
16
 10
10.1600
 20
7.6200
 30
0.0000
  0
SEQEND
  8
0
  0
POLYLINE
  8
16
 66
1
 10
0.0000
 20
0.0000
 30
0.0000
 40
0.6350
 41
0.6350
 70
0
  0
VERTEX
  8
16
 10
10.1600
 20
7.3025
 30
0.0000
 42
1.0000
  0
VERTEX
  8
16
 10
10.1600
 20
7.9375
 30
0.0000
  0
SEQEND
  8
0
  0
POLYLINE
  8
16
 66
1
 10
0.0000
 20
0.0000
 30
0.0000
 40
0.6350
 41
0.6350
 70
0
  0
VERTEX
  8
16
 10
7.6200
 20
7.9375
 30
0.0000
 42
1.0000
  0
VERTEX
  8
16
 10
7.6200
 20
7.3025
 30
0.0000
  0
SEQEND
  8
0
  0
POLYLINE
  8
16
 66
1
 10
0.0000
 20
0.0000
 30
0.0000
 40
1.2700
 41
1.2700
 70
0
  0
VERTEX
  8
16
 10
10.1600
 20
10.1600
 30
0.0000
  0
VERTEX
  8
16
 10
7.6200
 20
10.1600
 30
0.0000
  0
SEQEND
  8
0
  0
POLYLINE
  8
16
 66
1
 10
0.0000
 20
0.0000
 30
0.0000
 40
0.6350
 41
0.6350
 70
0
  0
VERTEX
  8
16
 10
7.6200
 20
10.4775
 30
0.0000
 42
1.0000
  0
VERTEX
  8
16
 10
7.6200
 20
9.8425
 30
0.0000
  0
SEQEND
  8
0
  0
POLYLINE
  8
16
 66
1
 10
0.0000
 20
0.0000
 30
0.0000
 40
0.6350
 41
0.6350
 70
0
  0
VERTEX
  8
16
 10
10.1600
 20
9.8425
 30
0.0000
 42
1.0000
  0
VERTEX
  8
16
 10
10.1600
 20
10.4775
 30
0.0000
  0
SEQEND
  8
0
  0
POLYLINE
  8
16
 66
1
 10
0.0000
 20
0.0000
 30
0.0000
 40
1.2700
 41
1.2700
 70
0
  0
VERTEX
  8
16
 10
5.0800
 20
2.5400
 30
0.0000
  0
VERTEX
  8
16
 10
2.5400
 20
2.5400
 30
0.0000
  0
SEQEND
  8
0
  0
POLYLINE
  8
16
 66
1
 10
0.0000
 20
0.0000
 30
0.0000
 40
0.6350
 41
0.6350
 70
0
  0
VERTEX
  8
16
 10
2.5400
 20
2.8575
 30
0.0000
 42
1.0000
  0
VERTEX
  8
16
 10
2.5400
 20
2.2225
 30
0.0000
  0
SEQEND
  8
0
  0
POLYLINE
  8
16
 66
1
 10
0.0000
 20
0.0000
 30
0.0000
 40
0.6350
 41
0.6350
 70
0
  0
VERTEX
  8
16
 10
5.0800
 20
2.2225
 30
0.0000
 42
1.0000
  0
VERTEX
  8
16
 10
5.0800
 20
2.8575
 30
0.0000
  0
SEQEND
  8
0
  0
POLYLINE
  8
16
 66
1
 10
0.0000
 20
0.0000
 30
0.0000
 40
1.2700
 41
1.2700
 70
0
  0
VERTEX
  8
16
 10
2.5400
 20
5.0800
 30
0.0000
  0
VERTEX
  8
16
 10
5.0800
 20
5.0800
 30
0.0000
  0
SEQEND
  8
0
  0
POLYLINE
  8
16
 66
1
 10
0.0000
 20
0.0000
 30
0.0000
 40
0.6350
 41
0.6350
 70
0
  0
VERTEX
  8
16
 10
5.0800
 20
4.7625
 30
0.0000
 42
1.0000
  0
VERTEX
  8
16
 10
5.0800
 20
5.3975
 30
0.0000
  0
SEQEND
  8
0
  0
POLYLINE
  8
16
 66
1
 10
0.0000
 20
0.0000
 30
0.0000
 40
0.6350
 41
0.6350
 70
0
  0
VERTEX
  8
16
 10
2.5400
 20
5.3975
 30
0.0000
 42
1.0000
  0
VERTEX
  8
16
 10
2.5400
 20
4.7625
 30
0.0000
  0
SEQEND
  8
0
  0
POLYLINE
  8
16
 66
1
 10
0.0000
 20
0.0000
 30
0.0000
 40
1.2700
 41
1.2700
 70
0
  0
VERTEX
  8
16
 10
5.0800
 20
7.6200
 30
0.0000
  0
VERTEX
  8
16
 10
2.5400
 20
7.6200
 30
0.0000
  0
SEQEND
  8
0
  0
POLYLINE
  8
16
 66
1
 10
0.0000
 20
0.0000
 30
0.0000
 40
0.6350
 41
0.6350
 70
0
  0
VERTEX
  8
16
 10
2.5400
 20
7.9375
 30
0.0000
 42
1.0000
  0
VERTEX
  8
16
 10
2.5400
 20
7.3025
 30
0.0000
  0
SEQEND
  8
0
  0
POLYLINE
  8
16
 66
1
 10
0.0000
 20
0.0000
 30
0.0000
 40
0.6350
 41
0.6350
 70
0
  0
VERTEX
  8
16
 10
5.0800
 20
7.3025
 30
0.0000
 42
1.0000
  0
VERTEX
  8
16
 10
5.0800
 20
7.9375
 30
0.0000
  0
SEQEND
  8
0
  0
POLYLINE
  8
16
 66
1
 10
0.0000
 20
0.0000
 30
0.0000
 40
1.2700
 41
1.2700
 70
0
  0
VERTEX
  8
16
 10
2.5400
 20
10.1600
 30
0.0000
  0
VERTEX
  8
16
 10
5.0800
 20
10.1600
 30
0.0000
  0
SEQEND
  8
0
  0
POLYLINE
  8
16
 66
1
 10
0.0000
 20
0.0000
 30
0.0000
 40
0.6350
 41
0.6350
 70
0
  0
VERTEX
  8
16
 10
5.0800
 20
9.8425
 30
0.0000
 42
1.0000
  0
VERTEX
  8
16
 10
5.0800
 20
10.4775
 30
0.0000
  0
SEQEND
  8
0
  0
POLYLINE
  8
16
 66
1
 10
0.0000
 20
0.0000
 30
0.0000
 40
0.6350
 41
0.6350
 70
0
  0
VERTEX
  8
16
 10
2.5400
 20
10.4775
 30
0.0000
 42
1.0000
  0
VERTEX
  8
16
 10
2.5400
 20
9.8425
 30
0.0000
  0
SEQEND
  8
0
  0
ENDSEC
  0
EOF
